solid OpenSCAD_Model
  facet normal -1 0 0
    outer loop
      vertex 0 0 0
      vertex 0 15.25 10
      vertex 0 15.25 0
    endloop
  endfacet
  facet normal -1 -0 0
    outer loop
      vertex 0 15.25 10
      vertex 0 0 0
      vertex 0 0 10
    endloop
  endfacet
  facet normal 1 -0 0
    outer loop
      vertex 28.25 0 10
      vertex 28.25 15.25 0
      vertex 28.25 15.25 10
    endloop
  endfacet
  facet normal 1 0 0
    outer loop
      vertex 28.25 15.25 0
      vertex 28.25 0 10
      vertex 28.25 0 0
    endloop
  endfacet
  facet normal 0 0 -1
    outer loop
      vertex 0 0 0
      vertex 28.25 15.25 0
      vertex 28.25 0 0
    endloop
  endfacet
  facet normal -0 0 -1
    outer loop
      vertex 28.25 15.25 0
      vertex 0 0 0
      vertex 0 15.25 0
    endloop
  endfacet
  facet normal 0 -1 0
    outer loop
      vertex 0 0 0
      vertex 28.25 0 10
      vertex 0 0 10
    endloop
  endfacet
  facet normal 0 -1 -0
    outer loop
      vertex 28.25 0 10
      vertex 0 0 0
      vertex 28.25 0 0
    endloop
  endfacet
  facet normal 0 1 -0
    outer loop
      vertex 28.25 15.25 0
      vertex 0 15.25 10
      vertex 28.25 15.25 10
    endloop
  endfacet
  facet normal 0 1 0
    outer loop
      vertex 0 15.25 10
      vertex 28.25 15.25 0
      vertex 0 15.25 0
    endloop
  endfacet
  facet normal -0.995926 0 0.090176
    outer loop
      vertex 0 15.25 10
      vertex 7.0625 3.8125 88
      vertex 7.0625 11.4375 88
    endloop
  endfacet
  facet normal -0.995926 0 0.090176
    outer loop
      vertex 7.0625 3.8125 88
      vertex 0 15.25 10
      vertex 0 0 10
    endloop
  endfacet
  facet normal 0.995926 -0 0.090176
    outer loop
      vertex 21.1875 3.8125 88
      vertex 28.25 15.25 10
      vertex 21.1875 11.4375 88
    endloop
  endfacet
  facet normal 0.995926 0 0.090176
    outer loop
      vertex 28.25 15.25 10
      vertex 21.1875 3.8125 88
      vertex 28.25 0 10
    endloop
  endfacet
  facet normal 0 0.998808 0.0488199
    outer loop
      vertex 28.25 15.25 10
      vertex 7.0625 11.4375 88
      vertex 21.1875 11.4375 88
    endloop
  endfacet
  facet normal 0 0.998808 0.0488199
    outer loop
      vertex 7.0625 11.4375 88
      vertex 28.25 15.25 10
      vertex 0 15.25 10
    endloop
  endfacet
  facet normal 0 -0.998808 0.0488199
    outer loop
      vertex 0 0 10
      vertex 21.1875 3.8125 88
      vertex 7.0625 3.8125 88
    endloop
  endfacet
  facet normal 0 -0.998808 0.0488199
    outer loop
      vertex 21.1875 3.8125 88
      vertex 0 0 10
      vertex 28.25 0 10
    endloop
  endfacet
  facet normal 0.861819 0 0.507216
    outer loop
      vertex 21.1875 11.4375 88
      vertex 14.125 7.625 100
      vertex 21.1875 3.8125 88
    endloop
  endfacet
  facet normal 0 -0.953056 0.302794
    outer loop
      vertex 14.125 7.625 100
      vertex 7.0625 3.8125 88
      vertex 21.1875 3.8125 88
    endloop
  endfacet
  facet normal 0 0.953056 0.302794
    outer loop
      vertex 21.1875 11.4375 88
      vertex 7.0625 11.4375 88
      vertex 14.125 7.625 100
    endloop
  endfacet
  facet normal -0.861819 0 0.507216
    outer loop
      vertex 7.0625 11.4375 88
      vertex 7.0625 3.8125 88
      vertex 14.125 7.625 100
    endloop
  endfacet
endsolid OpenSCAD_Model
