solid OpenSCAD_Model
  facet normal -1 0 0
    outer loop
      vertex -14.5 4.25 0
      vertex -14.5 43.9209 16
      vertex -14.5 43.9209 0
    endloop
  endfacet
  facet normal -1 -0 0
    outer loop
      vertex -14.5 43.9209 16
      vertex -14.5 4.25 0
      vertex -14.5 4.25 16
    endloop
  endfacet
  facet normal 1 -0 0
    outer loop
      vertex -14.5 52.01 16
      vertex -14.5 62 0
      vertex -14.5 62 16
    endloop
  endfacet
  facet normal 1 0 0
    outer loop
      vertex -14.5 62 0
      vertex -14.5 52.01 16
      vertex -14.5 52.01 0
    endloop
  endfacet
  facet normal 0 0 1
    outer loop
      vertex 0 18.75 16
      vertex 14.5 43.9209 16
      vertex 0 33.875 16
    endloop
  endfacet
  facet normal 0 0 1
    outer loop
      vertex 14.5 43.9209 16
      vertex 0 18.75 16
      vertex 14.5 4.25 16
    endloop
  endfacet
  facet normal 0 0 1
    outer loop
      vertex -14.5 43.9209 16
      vertex 0 18.75 16
      vertex 0 33.875 16
    endloop
  endfacet
  facet normal 0 0 1
    outer loop
      vertex 0 18.75 16
      vertex -14.5 43.9209 16
      vertex -14.5 4.25 16
    endloop
  endfacet
  facet normal 0 0 -1
    outer loop
      vertex -14.5 52.01 16
      vertex 14.5 62 16
      vertex 14.5 52.01 16
    endloop
  endfacet
  facet normal -0 0 -1
    outer loop
      vertex 14.5 62 16
      vertex -14.5 52.01 16
      vertex -14.5 62 16
    endloop
  endfacet
  facet normal 1 -0 0
    outer loop
      vertex 14.5 4.25 16
      vertex 14.5 43.9209 0
      vertex 14.5 43.9209 16
    endloop
  endfacet
  facet normal 1 0 0
    outer loop
      vertex 14.5 43.9209 0
      vertex 14.5 4.25 16
      vertex 14.5 4.25 0
    endloop
  endfacet
  facet normal -1 0 0
    outer loop
      vertex 14.5 52.01 0
      vertex 14.5 62 16
      vertex 14.5 62 0
    endloop
  endfacet
  facet normal -1 -0 0
    outer loop
      vertex 14.5 62 16
      vertex 14.5 52.01 0
      vertex 14.5 52.01 16
    endloop
  endfacet
  facet normal 0 0 -1
    outer loop
      vertex 0 18.75 0
      vertex 14.5 43.9209 0
      vertex 14.5 4.25 0
    endloop
  endfacet
  facet normal 0 0 -1
    outer loop
      vertex 0 18.75 0
      vertex 0 33.875 0
      vertex 14.5 43.9209 0
    endloop
  endfacet
  facet normal 0 0 -1
    outer loop
      vertex -14.5 43.9209 0
      vertex 0 18.75 0
      vertex -14.5 4.25 0
    endloop
  endfacet
  facet normal 0 0 -1
    outer loop
      vertex 0 18.75 0
      vertex -14.5 43.9209 0
      vertex 0 33.875 0
    endloop
  endfacet
  facet normal -0 0 1
    outer loop
      vertex -14.5 62 0
      vertex 14.5 52.01 0
      vertex 14.5 62 0
    endloop
  endfacet
  facet normal 0 0 1
    outer loop
      vertex 14.5 52.01 0
      vertex -14.5 62 0
      vertex -14.5 52.01 0
    endloop
  endfacet
  facet normal -0.707107 0.707107 0
    outer loop
      vertex 0 18.75 -2
      vertex -14.5 4.25 0
      vertex 0 18.75 0
    endloop
  endfacet
  facet normal -0.707107 0.707107 0
    outer loop
      vertex -14.5 4.25 0
      vertex -18.75 0 -2
      vertex -14.5 4.25 16
    endloop
  endfacet
  facet normal -0.707107 0.707107 0
    outer loop
      vertex -18.75 0 -2
      vertex -14.5 4.25 0
      vertex 0 18.75 -2
    endloop
  endfacet
  facet normal -0.707107 0.707107 0
    outer loop
      vertex -14.5 4.25 16
      vertex 0 18.75 18
      vertex 0 18.75 16
    endloop
  endfacet
  facet normal -0.707107 0.707107 0
    outer loop
      vertex -14.5 4.25 16
      vertex -18.75 0 18
      vertex 0 18.75 18
    endloop
  endfacet
  facet normal -0.707107 0.707107 0
    outer loop
      vertex -18.75 0 18
      vertex -14.5 4.25 16
      vertex -18.75 0 -2
    endloop
  endfacet
  facet normal 0.707107 0.707107 0
    outer loop
      vertex 0 18.75 18
      vertex 14.5 4.25 16
      vertex 0 18.75 16
    endloop
  endfacet
  facet normal 0.707107 0.707107 0
    outer loop
      vertex 14.5 4.25 16
      vertex 18.75 0 18
      vertex 14.5 4.25 0
    endloop
  endfacet
  facet normal 0.707107 0.707107 0
    outer loop
      vertex 18.75 0 18
      vertex 14.5 4.25 16
      vertex 0 18.75 18
    endloop
  endfacet
  facet normal 0.707107 0.707107 0
    outer loop
      vertex 14.5 4.25 0
      vertex 0 18.75 -2
      vertex 0 18.75 0
    endloop
  endfacet
  facet normal 0.707107 0.707107 0
    outer loop
      vertex 14.5 4.25 0
      vertex 18.75 0 -2
      vertex 0 18.75 -2
    endloop
  endfacet
  facet normal 0.707107 0.707107 -0
    outer loop
      vertex 18.75 0 -2
      vertex 14.5 4.25 0
      vertex 18.75 0 18
    endloop
  endfacet
  facet normal 0 0 1
    outer loop
      vertex 0 18.75 18
      vertex 0 -18.75 18
      vertex 18.75 0 18
    endloop
  endfacet
  facet normal 0 -0 1
    outer loop
      vertex 0 -18.75 18
      vertex 0 18.75 18
      vertex -18.75 0 18
    endloop
  endfacet
  facet normal 0 0 -1
    outer loop
      vertex 0 -18.75 -2
      vertex 0 18.75 -2
      vertex 18.75 0 -2
    endloop
  endfacet
  facet normal 0 -0 -1
    outer loop
      vertex 0 18.75 -2
      vertex 0 -18.75 -2
      vertex -18.75 0 -2
    endloop
  endfacet
  facet normal 0.707107 -0.707107 0
    outer loop
      vertex 18.75 0 18
      vertex 10 -8.75 9.575
      vertex 18.75 0 -2
    endloop
  endfacet
  facet normal 0.707107 -0.707107 0
    outer loop
      vertex 0 -18.75 18
      vertex 10 -8.75 9.575
      vertex 18.75 0 18
    endloop
  endfacet
  facet normal 0.707107 -0.707107 0
    outer loop
      vertex 10 -8.75 9.575
      vertex 0 -18.75 18
      vertex 0 -18.75 9.575
    endloop
  endfacet
  facet normal 0.707107 -0.707107 0
    outer loop
      vertex 10 -8.75 6.425
      vertex 18.75 0 -2
      vertex 10 -8.75 9.575
    endloop
  endfacet
  facet normal 0.707107 -0.707107 0
    outer loop
      vertex 0 -18.75 -2
      vertex 10 -8.75 6.425
      vertex 0 -18.75 6.425
    endloop
  endfacet
  facet normal 0.707107 -0.707107 0
    outer loop
      vertex 10 -8.75 6.425
      vertex 0 -18.75 -2
      vertex 18.75 0 -2
    endloop
  endfacet
  facet normal -0.707107 -0.707107 0
    outer loop
      vertex -18.75 0 -2
      vertex -10 -8.75 6.425
      vertex -18.75 0 18
    endloop
  endfacet
  facet normal -0.707107 -0.707107 0
    outer loop
      vertex 0 -18.75 -2
      vertex -10 -8.75 6.425
      vertex -18.75 0 -2
    endloop
  endfacet
  facet normal -0.707107 -0.707107 0
    outer loop
      vertex -10 -8.75 6.425
      vertex 0 -18.75 -2
      vertex 0 -18.75 6.425
    endloop
  endfacet
  facet normal -0.707107 -0.707107 -0
    outer loop
      vertex -10 -8.75 9.575
      vertex -18.75 0 18
      vertex -10 -8.75 6.425
    endloop
  endfacet
  facet normal -0.707107 -0.707107 -0
    outer loop
      vertex 0 -18.75 18
      vertex -10 -8.75 9.575
      vertex 0 -18.75 9.575
    endloop
  endfacet
  facet normal -0.707107 -0.707107 0
    outer loop
      vertex -10 -8.75 9.575
      vertex 0 -18.75 18
      vertex -18.75 0 18
    endloop
  endfacet
  facet normal 0 1 0
    outer loop
      vertex 40.5949 62 18
      vertex 14.5 62 16
      vertex -40.5949 62 18
    endloop
  endfacet
  facet normal 0 1 0
    outer loop
      vertex 40.5949 62 18
      vertex 14.5 62 0
      vertex 14.5 62 16
    endloop
  endfacet
  facet normal 0 1 0
    outer loop
      vertex 14.5 62 0
      vertex 40.5949 62 -2
      vertex -14.5 62 0
    endloop
  endfacet
  facet normal 0 1 -0
    outer loop
      vertex 40.5949 62 -2
      vertex 14.5 62 0
      vertex 40.5949 62 18
    endloop
  endfacet
  facet normal 0 1 -0
    outer loop
      vertex -14.5 62 16
      vertex -40.5949 62 18
      vertex 14.5 62 16
    endloop
  endfacet
  facet normal 0 1 -0
    outer loop
      vertex -14.5 62 0
      vertex -40.5949 62 18
      vertex -14.5 62 16
    endloop
  endfacet
  facet normal 0 1 0
    outer loop
      vertex -14.5 62 0
      vertex -40.5949 62 -2
      vertex -40.5949 62 18
    endloop
  endfacet
  facet normal 0 1 0
    outer loop
      vertex -40.5949 62 -2
      vertex -14.5 62 0
      vertex 40.5949 62 -2
    endloop
  endfacet
  facet normal 0.569495 -0.821995 0
    outer loop
      vertex 0 33.875 0
      vertex 0 33.875 -2
      vertex 14.5 43.9209 0
    endloop
  endfacet
  facet normal 0.569495 -0.821995 0
    outer loop
      vertex 14.5 43.9209 16
      vertex 0 33.875 18
      vertex 0 33.875 16
    endloop
  endfacet
  facet normal 0.569495 -0.821995 8.78492e-08
    outer loop
      vertex 0 33.875 18
      vertex 14.5 43.9209 16
      vertex 40.5949 62 18
    endloop
  endfacet
  facet normal 0.569495 -0.821995 0
    outer loop
      vertex 14.5 43.9209 0
      vertex 40.5949 62 18
      vertex 14.5 43.9209 16
    endloop
  endfacet
  facet normal 0.569495 -0.821995 0
    outer loop
      vertex 14.5 43.9209 0
      vertex 40.5949 62 -2
      vertex 40.5949 62 18
    endloop
  endfacet
  facet normal 0.569495 -0.821995 -8.78492e-08
    outer loop
      vertex 40.5949 62 -2
      vertex 14.5 43.9209 0
      vertex 0 33.875 -2
    endloop
  endfacet
  facet normal -0.569495 -0.821995 8.78492e-08
    outer loop
      vertex -40.5949 62 18
      vertex -14.5 43.9209 16
      vertex 0 33.875 18
    endloop
  endfacet
  facet normal -0.569495 -0.821995 0
    outer loop
      vertex -40.5949 62 18
      vertex -14.5 43.9209 0
      vertex -14.5 43.9209 16
    endloop
  endfacet
  facet normal -0.569495 -0.821995 0
    outer loop
      vertex -40.5949 62 -2
      vertex -14.5 43.9209 0
      vertex -40.5949 62 18
    endloop
  endfacet
  facet normal -0.569495 -0.821995 -8.78492e-08
    outer loop
      vertex 0 33.875 -2
      vertex -14.5 43.9209 0
      vertex -40.5949 62 -2
    endloop
  endfacet
  facet normal -0.569495 -0.821995 0
    outer loop
      vertex -14.5 43.9209 0
      vertex 0 33.875 -2
      vertex 0 33.875 0
    endloop
  endfacet
  facet normal -0.569495 -0.821995 -0
    outer loop
      vertex 0 33.875 18
      vertex -14.5 43.9209 16
      vertex 0 33.875 16
    endloop
  endfacet
  facet normal 0 0 1
    outer loop
      vertex 40.5949 62 18
      vertex 4.99013 47.314 18
      vertex 5 47 18
    endloop
  endfacet
  facet normal 0 0 1
    outer loop
      vertex 40.5949 62 18
      vertex 4.96057 47.6267 18
      vertex 4.99013 47.314 18
    endloop
  endfacet
  facet normal 0 0 1
    outer loop
      vertex 40.5949 62 18
      vertex 4.91144 47.9369 18
      vertex 4.96057 47.6267 18
    endloop
  endfacet
  facet normal 0 0 1
    outer loop
      vertex 40.5949 62 18
      vertex 4.84292 48.2435 18
      vertex 4.91144 47.9369 18
    endloop
  endfacet
  facet normal 0 0 1
    outer loop
      vertex 40.5949 62 18
      vertex 4.75528 48.5451 18
      vertex 4.84292 48.2435 18
    endloop
  endfacet
  facet normal 0 0 1
    outer loop
      vertex 40.5949 62 18
      vertex 4.64888 48.8406 18
      vertex 4.75528 48.5451 18
    endloop
  endfacet
  facet normal 0 0 1
    outer loop
      vertex 40.5949 62 18
      vertex 4.52413 49.1289 18
      vertex 4.64888 48.8406 18
    endloop
  endfacet
  facet normal 0 0 1
    outer loop
      vertex 40.5949 62 18
      vertex 4.38153 49.4088 18
      vertex 4.52413 49.1289 18
    endloop
  endfacet
  facet normal 0 0 1
    outer loop
      vertex 40.5949 62 18
      vertex 4.22164 49.6791 18
      vertex 4.38153 49.4088 18
    endloop
  endfacet
  facet normal 0 0 1
    outer loop
      vertex 40.5949 62 18
      vertex 4.04508 49.9389 18
      vertex 4.22164 49.6791 18
    endloop
  endfacet
  facet normal 0 0 1
    outer loop
      vertex 40.5949 62 18
      vertex 3.85257 50.1871 18
      vertex 4.04508 49.9389 18
    endloop
  endfacet
  facet normal 0 0 1
    outer loop
      vertex 40.5949 62 18
      vertex 3.64484 50.4227 18
      vertex 3.85257 50.1871 18
    endloop
  endfacet
  facet normal 0 0 1
    outer loop
      vertex 40.5949 62 18
      vertex 3.42274 50.6448 18
      vertex 3.64484 50.4227 18
    endloop
  endfacet
  facet normal 0 0 1
    outer loop
      vertex 40.5949 62 18
      vertex 3.18712 50.8526 18
      vertex 3.42274 50.6448 18
    endloop
  endfacet
  facet normal 0 0 1
    outer loop
      vertex 40.5949 62 18
      vertex 2.93893 51.0451 18
      vertex 3.18712 50.8526 18
    endloop
  endfacet
  facet normal 0 0 1
    outer loop
      vertex 40.5949 62 18
      vertex 2.67913 51.2216 18
      vertex 2.93893 51.0451 18
    endloop
  endfacet
  facet normal 0 0 1
    outer loop
      vertex 40.5949 62 18
      vertex 2.40877 51.3815 18
      vertex 2.67913 51.2216 18
    endloop
  endfacet
  facet normal 0 0 1
    outer loop
      vertex 40.5949 62 18
      vertex 2.1289 51.5241 18
      vertex 2.40877 51.3815 18
    endloop
  endfacet
  facet normal 0 0 1
    outer loop
      vertex 40.5949 62 18
      vertex 1.84062 51.6489 18
      vertex 2.1289 51.5241 18
    endloop
  endfacet
  facet normal 0 0 1
    outer loop
      vertex 40.5949 62 18
      vertex 1.54508 51.7553 18
      vertex 1.84062 51.6489 18
    endloop
  endfacet
  facet normal 0 0 1
    outer loop
      vertex 40.5949 62 18
      vertex 1.24345 51.8429 18
      vertex 1.54508 51.7553 18
    endloop
  endfacet
  facet normal 0 0 1
    outer loop
      vertex 40.5949 62 18
      vertex 0.936906 51.9114 18
      vertex 1.24345 51.8429 18
    endloop
  endfacet
  facet normal 0 0 1
    outer loop
      vertex 40.5949 62 18
      vertex 0.626666 51.9606 18
      vertex 0.936906 51.9114 18
    endloop
  endfacet
  facet normal 0 0 1
    outer loop
      vertex 40.5949 62 18
      vertex 0.313952 51.9901 18
      vertex 0.626666 51.9606 18
    endloop
  endfacet
  facet normal 0 0 1
    outer loop
      vertex 40.5949 62 18
      vertex 0 52 18
      vertex 0.313952 51.9901 18
    endloop
  endfacet
  facet normal -0 0 1
    outer loop
      vertex -40.5949 62 18
      vertex 0 52 18
      vertex 40.5949 62 18
    endloop
  endfacet
  facet normal 0 0 1
    outer loop
      vertex 0 52 18
      vertex -40.5949 62 18
      vertex -0.313952 51.9901 18
    endloop
  endfacet
  facet normal 0 0 1
    outer loop
      vertex -0.313952 51.9901 18
      vertex -40.5949 62 18
      vertex -0.626666 51.9606 18
    endloop
  endfacet
  facet normal 0 0 1
    outer loop
      vertex -0.626666 51.9606 18
      vertex -40.5949 62 18
      vertex -0.936906 51.9114 18
    endloop
  endfacet
  facet normal 0 0 1
    outer loop
      vertex -4.99013 47.314 18
      vertex -40.5949 62 18
      vertex -5 47 18
    endloop
  endfacet
  facet normal 0 0 1
    outer loop
      vertex -4.96057 47.6267 18
      vertex -40.5949 62 18
      vertex -4.99013 47.314 18
    endloop
  endfacet
  facet normal 0 0 1
    outer loop
      vertex -4.91144 47.9369 18
      vertex -40.5949 62 18
      vertex -4.96057 47.6267 18
    endloop
  endfacet
  facet normal 0 0 1
    outer loop
      vertex -4.84292 48.2435 18
      vertex -40.5949 62 18
      vertex -4.91144 47.9369 18
    endloop
  endfacet
  facet normal 0 0 1
    outer loop
      vertex -4.75528 48.5451 18
      vertex -40.5949 62 18
      vertex -4.84292 48.2435 18
    endloop
  endfacet
  facet normal 0 0 1
    outer loop
      vertex -4.64888 48.8406 18
      vertex -40.5949 62 18
      vertex -4.75528 48.5451 18
    endloop
  endfacet
  facet normal 0 0 1
    outer loop
      vertex -4.52413 49.1289 18
      vertex -40.5949 62 18
      vertex -4.64888 48.8406 18
    endloop
  endfacet
  facet normal 0 0 1
    outer loop
      vertex -4.38153 49.4088 18
      vertex -40.5949 62 18
      vertex -4.52413 49.1289 18
    endloop
  endfacet
  facet normal 0 0 1
    outer loop
      vertex -4.22164 49.6791 18
      vertex -40.5949 62 18
      vertex -4.38153 49.4088 18
    endloop
  endfacet
  facet normal 0 0 1
    outer loop
      vertex -4.04508 49.9389 18
      vertex -40.5949 62 18
      vertex -4.22164 49.6791 18
    endloop
  endfacet
  facet normal 0 0 1
    outer loop
      vertex -3.85257 50.1871 18
      vertex -40.5949 62 18
      vertex -4.04508 49.9389 18
    endloop
  endfacet
  facet normal 0 0 1
    outer loop
      vertex -3.64484 50.4227 18
      vertex -40.5949 62 18
      vertex -3.85257 50.1871 18
    endloop
  endfacet
  facet normal 0 0 1
    outer loop
      vertex -3.42274 50.6448 18
      vertex -40.5949 62 18
      vertex -3.64484 50.4227 18
    endloop
  endfacet
  facet normal 0 0 1
    outer loop
      vertex -3.18712 50.8526 18
      vertex -40.5949 62 18
      vertex -3.42274 50.6448 18
    endloop
  endfacet
  facet normal 0 0 1
    outer loop
      vertex -2.93893 51.0451 18
      vertex -40.5949 62 18
      vertex -3.18712 50.8526 18
    endloop
  endfacet
  facet normal 0 0 1
    outer loop
      vertex -2.67913 51.2216 18
      vertex -40.5949 62 18
      vertex -2.93893 51.0451 18
    endloop
  endfacet
  facet normal 0 0 1
    outer loop
      vertex -2.40877 51.3815 18
      vertex -40.5949 62 18
      vertex -2.67913 51.2216 18
    endloop
  endfacet
  facet normal 0 0 1
    outer loop
      vertex -2.1289 51.5241 18
      vertex -40.5949 62 18
      vertex -2.40877 51.3815 18
    endloop
  endfacet
  facet normal 0 0 1
    outer loop
      vertex -1.84062 51.6489 18
      vertex -40.5949 62 18
      vertex -2.1289 51.5241 18
    endloop
  endfacet
  facet normal 0 0 1
    outer loop
      vertex -1.54508 51.7553 18
      vertex -40.5949 62 18
      vertex -1.84062 51.6489 18
    endloop
  endfacet
  facet normal 0 0 1
    outer loop
      vertex -1.24345 51.8429 18
      vertex -40.5949 62 18
      vertex -1.54508 51.7553 18
    endloop
  endfacet
  facet normal 0 0 1
    outer loop
      vertex -0.936906 51.9114 18
      vertex -40.5949 62 18
      vertex -1.24345 51.8429 18
    endloop
  endfacet
  facet normal 0 0 1
    outer loop
      vertex 4.99013 46.686 18
      vertex 40.5949 62 18
      vertex 5 47 18
    endloop
  endfacet
  facet normal 0 0 1
    outer loop
      vertex 4.96057 46.3733 18
      vertex 40.5949 62 18
      vertex 4.99013 46.686 18
    endloop
  endfacet
  facet normal 0 0 1
    outer loop
      vertex 4.91144 46.0631 18
      vertex 40.5949 62 18
      vertex 4.96057 46.3733 18
    endloop
  endfacet
  facet normal 0 0 1
    outer loop
      vertex 4.84292 45.7565 18
      vertex 40.5949 62 18
      vertex 4.91144 46.0631 18
    endloop
  endfacet
  facet normal 0 0 1
    outer loop
      vertex 4.75528 45.4549 18
      vertex 40.5949 62 18
      vertex 4.84292 45.7565 18
    endloop
  endfacet
  facet normal 0 0 1
    outer loop
      vertex 4.64888 45.1594 18
      vertex 40.5949 62 18
      vertex 4.75528 45.4549 18
    endloop
  endfacet
  facet normal 0 0 1
    outer loop
      vertex 4.52413 44.8711 18
      vertex 40.5949 62 18
      vertex 4.64888 45.1594 18
    endloop
  endfacet
  facet normal 0 0 1
    outer loop
      vertex 4.38153 44.5912 18
      vertex 40.5949 62 18
      vertex 4.52413 44.8711 18
    endloop
  endfacet
  facet normal 0 0 1
    outer loop
      vertex 4.22164 44.3209 18
      vertex 40.5949 62 18
      vertex 4.38153 44.5912 18
    endloop
  endfacet
  facet normal 0 0 1
    outer loop
      vertex 0 33.875 18
      vertex 4.22164 44.3209 18
      vertex 4.04508 44.0611 18
    endloop
  endfacet
  facet normal 0 0 1
    outer loop
      vertex 0 33.875 18
      vertex 4.04508 44.0611 18
      vertex 3.85257 43.8129 18
    endloop
  endfacet
  facet normal 0 0 1
    outer loop
      vertex 0 33.875 18
      vertex 3.85257 43.8129 18
      vertex 3.64484 43.5773 18
    endloop
  endfacet
  facet normal 0 0 1
    outer loop
      vertex 0 33.875 18
      vertex 3.64484 43.5773 18
      vertex 3.42274 43.3552 18
    endloop
  endfacet
  facet normal 0 0 1
    outer loop
      vertex 0 33.875 18
      vertex 3.42274 43.3552 18
      vertex 3.18712 43.1474 18
    endloop
  endfacet
  facet normal 0 0 1
    outer loop
      vertex 0 33.875 18
      vertex 3.18712 43.1474 18
      vertex 2.93893 42.9549 18
    endloop
  endfacet
  facet normal 0 0 1
    outer loop
      vertex 0 33.875 18
      vertex 2.93893 42.9549 18
      vertex 2.67913 42.7784 18
    endloop
  endfacet
  facet normal 0 0 1
    outer loop
      vertex 0 33.875 18
      vertex 2.67913 42.7784 18
      vertex 2.40877 42.6185 18
    endloop
  endfacet
  facet normal 0 0 1
    outer loop
      vertex 0 33.875 18
      vertex 2.40877 42.6185 18
      vertex 2.1289 42.4759 18
    endloop
  endfacet
  facet normal -0 0 1
    outer loop
      vertex 4.22164 44.3209 18
      vertex 0 33.875 18
      vertex 40.5949 62 18
    endloop
  endfacet
  facet normal -0 0 1
    outer loop
      vertex 1.84062 42.3511 18
      vertex 0 33.875 18
      vertex 2.1289 42.4759 18
    endloop
  endfacet
  facet normal -0 0 1
    outer loop
      vertex 1.54508 42.2447 18
      vertex 0 33.875 18
      vertex 1.84062 42.3511 18
    endloop
  endfacet
  facet normal -0 0 1
    outer loop
      vertex 1.24345 42.1571 18
      vertex 0 33.875 18
      vertex 1.54508 42.2447 18
    endloop
  endfacet
  facet normal -0 0 1
    outer loop
      vertex 0.936906 42.0886 18
      vertex 0 33.875 18
      vertex 1.24345 42.1571 18
    endloop
  endfacet
  facet normal -0 0 1
    outer loop
      vertex 0.626666 42.0394 18
      vertex 0 33.875 18
      vertex 0.936906 42.0886 18
    endloop
  endfacet
  facet normal -0 0 1
    outer loop
      vertex 0.313952 42.0099 18
      vertex 0 33.875 18
      vertex 0.626666 42.0394 18
    endloop
  endfacet
  facet normal -0 0 1
    outer loop
      vertex 0 42 18
      vertex 0 33.875 18
      vertex 0.313952 42.0099 18
    endloop
  endfacet
  facet normal 0 0 1
    outer loop
      vertex -0.313952 42.0099 18
      vertex 0 33.875 18
      vertex 0 42 18
    endloop
  endfacet
  facet normal 0 0 1
    outer loop
      vertex -0.626666 42.0394 18
      vertex 0 33.875 18
      vertex -0.313952 42.0099 18
    endloop
  endfacet
  facet normal 0 0 1
    outer loop
      vertex -0.936906 42.0886 18
      vertex 0 33.875 18
      vertex -0.626666 42.0394 18
    endloop
  endfacet
  facet normal 0 0 1
    outer loop
      vertex -1.24345 42.1571 18
      vertex 0 33.875 18
      vertex -0.936906 42.0886 18
    endloop
  endfacet
  facet normal 0 0 1
    outer loop
      vertex -1.54508 42.2447 18
      vertex 0 33.875 18
      vertex -1.24345 42.1571 18
    endloop
  endfacet
  facet normal 0 0 1
    outer loop
      vertex -1.84062 42.3511 18
      vertex 0 33.875 18
      vertex -1.54508 42.2447 18
    endloop
  endfacet
  facet normal 0 0 1
    outer loop
      vertex -2.1289 42.4759 18
      vertex 0 33.875 18
      vertex -1.84062 42.3511 18
    endloop
  endfacet
  facet normal 0 0 1
    outer loop
      vertex -2.40877 42.6185 18
      vertex 0 33.875 18
      vertex -2.1289 42.4759 18
    endloop
  endfacet
  facet normal 0 0 1
    outer loop
      vertex -2.67913 42.7784 18
      vertex 0 33.875 18
      vertex -2.40877 42.6185 18
    endloop
  endfacet
  facet normal 0 0 1
    outer loop
      vertex -2.93893 42.9549 18
      vertex 0 33.875 18
      vertex -2.67913 42.7784 18
    endloop
  endfacet
  facet normal 0 0 1
    outer loop
      vertex -3.18712 43.1474 18
      vertex 0 33.875 18
      vertex -2.93893 42.9549 18
    endloop
  endfacet
  facet normal 0 0 1
    outer loop
      vertex -3.42274 43.3552 18
      vertex 0 33.875 18
      vertex -3.18712 43.1474 18
    endloop
  endfacet
  facet normal 0 0 1
    outer loop
      vertex -3.64484 43.5773 18
      vertex 0 33.875 18
      vertex -3.42274 43.3552 18
    endloop
  endfacet
  facet normal 0 0 1
    outer loop
      vertex -3.85257 43.8129 18
      vertex 0 33.875 18
      vertex -3.64484 43.5773 18
    endloop
  endfacet
  facet normal 0 0 1
    outer loop
      vertex -4.04508 44.0611 18
      vertex 0 33.875 18
      vertex -3.85257 43.8129 18
    endloop
  endfacet
  facet normal 0 0 1
    outer loop
      vertex -4.22164 44.3209 18
      vertex 0 33.875 18
      vertex -4.04508 44.0611 18
    endloop
  endfacet
  facet normal 0 0 1
    outer loop
      vertex -4.38153 44.5912 18
      vertex 0 33.875 18
      vertex -4.22164 44.3209 18
    endloop
  endfacet
  facet normal 0 0 1
    outer loop
      vertex -40.5949 62 18
      vertex -4.38153 44.5912 18
      vertex -4.52413 44.8711 18
    endloop
  endfacet
  facet normal 0 0 1
    outer loop
      vertex -40.5949 62 18
      vertex -4.52413 44.8711 18
      vertex -4.64888 45.1594 18
    endloop
  endfacet
  facet normal 0 0 1
    outer loop
      vertex -4.38153 44.5912 18
      vertex -40.5949 62 18
      vertex 0 33.875 18
    endloop
  endfacet
  facet normal 0 0 1
    outer loop
      vertex -4.75528 45.4549 18
      vertex -40.5949 62 18
      vertex -4.64888 45.1594 18
    endloop
  endfacet
  facet normal 0 0 1
    outer loop
      vertex -4.84292 45.7565 18
      vertex -40.5949 62 18
      vertex -4.75528 45.4549 18
    endloop
  endfacet
  facet normal 0 0 1
    outer loop
      vertex -4.91144 46.0631 18
      vertex -40.5949 62 18
      vertex -4.84292 45.7565 18
    endloop
  endfacet
  facet normal 0 0 1
    outer loop
      vertex -4.96057 46.3733 18
      vertex -40.5949 62 18
      vertex -4.91144 46.0631 18
    endloop
  endfacet
  facet normal 0 0 1
    outer loop
      vertex -4.99013 46.686 18
      vertex -40.5949 62 18
      vertex -4.96057 46.3733 18
    endloop
  endfacet
  facet normal 0 0 1
    outer loop
      vertex -40.5949 62 18
      vertex -4.99013 46.686 18
      vertex -5 47 18
    endloop
  endfacet
  facet normal 0 0 -1
    outer loop
      vertex 0 33.875 -2
      vertex -40.5949 62 -2
      vertex 40.5949 62 -2
    endloop
  endfacet
  facet normal 1 -0 0
    outer loop
      vertex -12.5 2 14
      vertex -12.5 52.01 2
      vertex -12.5 52.01 14
    endloop
  endfacet
  facet normal 1 0 0
    outer loop
      vertex -12.5 52.01 2
      vertex -12.5 2 14
      vertex -12.5 2 2
    endloop
  endfacet
  facet normal 0 0 -1
    outer loop
      vertex 4.04508 44.0611 14
      vertex 12.5 52.01 14
      vertex 12.5 2 14
    endloop
  endfacet
  facet normal 0 0 -1
    outer loop
      vertex 12.5 52.01 14
      vertex 4.99013 46.686 14
      vertex 5 47 14
    endloop
  endfacet
  facet normal 0 0 -1
    outer loop
      vertex 12.5 52.01 14
      vertex 4.96057 46.3733 14
      vertex 4.99013 46.686 14
    endloop
  endfacet
  facet normal 0 0 -1
    outer loop
      vertex 12.5 52.01 14
      vertex 4.91144 46.0631 14
      vertex 4.96057 46.3733 14
    endloop
  endfacet
  facet normal 0 0 -1
    outer loop
      vertex 12.5 52.01 14
      vertex 4.84292 45.7565 14
      vertex 4.91144 46.0631 14
    endloop
  endfacet
  facet normal 0 0 -1
    outer loop
      vertex 12.5 52.01 14
      vertex 4.75528 45.4549 14
      vertex 4.84292 45.7565 14
    endloop
  endfacet
  facet normal 0 0 -1
    outer loop
      vertex 12.5 52.01 14
      vertex 4.64888 45.1594 14
      vertex 4.75528 45.4549 14
    endloop
  endfacet
  facet normal 0 0 -1
    outer loop
      vertex 12.5 52.01 14
      vertex 4.52413 44.8711 14
      vertex 4.64888 45.1594 14
    endloop
  endfacet
  facet normal 0 0 -1
    outer loop
      vertex 12.5 52.01 14
      vertex 4.38153 44.5912 14
      vertex 4.52413 44.8711 14
    endloop
  endfacet
  facet normal 0 0 -1
    outer loop
      vertex 12.5 52.01 14
      vertex 4.22164 44.3209 14
      vertex 4.38153 44.5912 14
    endloop
  endfacet
  facet normal 0 0 -1
    outer loop
      vertex 12.5 52.01 14
      vertex 4.04508 44.0611 14
      vertex 4.22164 44.3209 14
    endloop
  endfacet
  facet normal 0 0 -1
    outer loop
      vertex 12.5 2 14
      vertex 3.85257 43.8129 14
      vertex 4.04508 44.0611 14
    endloop
  endfacet
  facet normal 0 0 -1
    outer loop
      vertex 12.5 2 14
      vertex 3.64484 43.5773 14
      vertex 3.85257 43.8129 14
    endloop
  endfacet
  facet normal 0 0 -1
    outer loop
      vertex 12.5 2 14
      vertex 3.42274 43.3552 14
      vertex 3.64484 43.5773 14
    endloop
  endfacet
  facet normal 0 0 -1
    outer loop
      vertex 12.5 2 14
      vertex 3.18712 43.1474 14
      vertex 3.42274 43.3552 14
    endloop
  endfacet
  facet normal 0 0 -1
    outer loop
      vertex 12.5 2 14
      vertex 2.93893 42.9549 14
      vertex 3.18712 43.1474 14
    endloop
  endfacet
  facet normal 0 0 -1
    outer loop
      vertex 12.5 2 14
      vertex 2.67913 42.7784 14
      vertex 2.93893 42.9549 14
    endloop
  endfacet
  facet normal 0 0 -1
    outer loop
      vertex 12.5 2 14
      vertex 2.40877 42.6185 14
      vertex 2.67913 42.7784 14
    endloop
  endfacet
  facet normal 0 0 -1
    outer loop
      vertex 12.5 2 14
      vertex 2.1289 42.4759 14
      vertex 2.40877 42.6185 14
    endloop
  endfacet
  facet normal 0 0 -1
    outer loop
      vertex 12.5 2 14
      vertex 1.84062 42.3511 14
      vertex 2.1289 42.4759 14
    endloop
  endfacet
  facet normal 0 0 -1
    outer loop
      vertex 12.5 2 14
      vertex 1.54508 42.2447 14
      vertex 1.84062 42.3511 14
    endloop
  endfacet
  facet normal 0 0 -1
    outer loop
      vertex 12.5 2 14
      vertex 1.24345 42.1571 14
      vertex 1.54508 42.2447 14
    endloop
  endfacet
  facet normal 0 0 -1
    outer loop
      vertex 12.5 2 14
      vertex 0.936906 42.0886 14
      vertex 1.24345 42.1571 14
    endloop
  endfacet
  facet normal 0 0 -1
    outer loop
      vertex 12.5 2 14
      vertex 0.626666 42.0394 14
      vertex 0.936906 42.0886 14
    endloop
  endfacet
  facet normal 0 0 -1
    outer loop
      vertex 12.5 2 14
      vertex 0.313952 42.0099 14
      vertex 0.626666 42.0394 14
    endloop
  endfacet
  facet normal 0 0 -1
    outer loop
      vertex 12.5 2 14
      vertex 0 42 14
      vertex 0.313952 42.0099 14
    endloop
  endfacet
  facet normal 0 0 -1
    outer loop
      vertex -12.5 2 14
      vertex 0 42 14
      vertex 12.5 2 14
    endloop
  endfacet
  facet normal -0 0 -1
    outer loop
      vertex 0 42 14
      vertex -12.5 2 14
      vertex -0.313952 42.0099 14
    endloop
  endfacet
  facet normal -0 0 -1
    outer loop
      vertex -0.313952 42.0099 14
      vertex -12.5 2 14
      vertex -0.626666 42.0394 14
    endloop
  endfacet
  facet normal -0 0 -1
    outer loop
      vertex -0.626666 42.0394 14
      vertex -12.5 2 14
      vertex -0.936906 42.0886 14
    endloop
  endfacet
  facet normal -0 0 -1
    outer loop
      vertex -0.936906 42.0886 14
      vertex -12.5 2 14
      vertex -1.24345 42.1571 14
    endloop
  endfacet
  facet normal -0 0 -1
    outer loop
      vertex -1.24345 42.1571 14
      vertex -12.5 2 14
      vertex -1.54508 42.2447 14
    endloop
  endfacet
  facet normal -0 0 -1
    outer loop
      vertex -1.54508 42.2447 14
      vertex -12.5 2 14
      vertex -1.84062 42.3511 14
    endloop
  endfacet
  facet normal -0 0 -1
    outer loop
      vertex -1.84062 42.3511 14
      vertex -12.5 2 14
      vertex -2.1289 42.4759 14
    endloop
  endfacet
  facet normal -0 0 -1
    outer loop
      vertex -2.1289 42.4759 14
      vertex -12.5 2 14
      vertex -2.40877 42.6185 14
    endloop
  endfacet
  facet normal -0 0 -1
    outer loop
      vertex -2.40877 42.6185 14
      vertex -12.5 2 14
      vertex -2.67913 42.7784 14
    endloop
  endfacet
  facet normal -0 0 -1
    outer loop
      vertex -2.67913 42.7784 14
      vertex -12.5 2 14
      vertex -2.93893 42.9549 14
    endloop
  endfacet
  facet normal -0 0 -1
    outer loop
      vertex -2.93893 42.9549 14
      vertex -12.5 2 14
      vertex -3.18712 43.1474 14
    endloop
  endfacet
  facet normal -0 0 -1
    outer loop
      vertex -3.18712 43.1474 14
      vertex -12.5 2 14
      vertex -3.42274 43.3552 14
    endloop
  endfacet
  facet normal -0 0 -1
    outer loop
      vertex -3.42274 43.3552 14
      vertex -12.5 2 14
      vertex -3.64484 43.5773 14
    endloop
  endfacet
  facet normal -0 0 -1
    outer loop
      vertex -3.64484 43.5773 14
      vertex -12.5 2 14
      vertex -3.85257 43.8129 14
    endloop
  endfacet
  facet normal -0 0 -1
    outer loop
      vertex -3.85257 43.8129 14
      vertex -12.5 2 14
      vertex -4.04508 44.0611 14
    endloop
  endfacet
  facet normal 0 0 -1
    outer loop
      vertex -12.5 52.01 14
      vertex -4.04508 44.0611 14
      vertex -12.5 2 14
    endloop
  endfacet
  facet normal 0 0 -1
    outer loop
      vertex -4.04508 44.0611 14
      vertex -12.5 52.01 14
      vertex -4.22164 44.3209 14
    endloop
  endfacet
  facet normal 0 0 -1
    outer loop
      vertex -4.22164 44.3209 14
      vertex -12.5 52.01 14
      vertex -4.38153 44.5912 14
    endloop
  endfacet
  facet normal 0 0 -1
    outer loop
      vertex -4.96057 46.3733 14
      vertex -12.5 52.01 14
      vertex -4.99013 46.686 14
    endloop
  endfacet
  facet normal 0 0 -1
    outer loop
      vertex -4.91144 46.0631 14
      vertex -12.5 52.01 14
      vertex -4.96057 46.3733 14
    endloop
  endfacet
  facet normal 0 0 -1
    outer loop
      vertex -4.84292 45.7565 14
      vertex -12.5 52.01 14
      vertex -4.91144 46.0631 14
    endloop
  endfacet
  facet normal 0 0 -1
    outer loop
      vertex -4.75528 45.4549 14
      vertex -12.5 52.01 14
      vertex -4.84292 45.7565 14
    endloop
  endfacet
  facet normal 0 0 -1
    outer loop
      vertex -4.64888 45.1594 14
      vertex -12.5 52.01 14
      vertex -4.75528 45.4549 14
    endloop
  endfacet
  facet normal 0 0 -1
    outer loop
      vertex -4.52413 44.8711 14
      vertex -12.5 52.01 14
      vertex -4.64888 45.1594 14
    endloop
  endfacet
  facet normal 0 0 -1
    outer loop
      vertex -4.38153 44.5912 14
      vertex -12.5 52.01 14
      vertex -4.52413 44.8711 14
    endloop
  endfacet
  facet normal 0 0 -1
    outer loop
      vertex 4.99013 47.314 14
      vertex 12.5 52.01 14
      vertex 5 47 14
    endloop
  endfacet
  facet normal 0 0 -1
    outer loop
      vertex 4.96057 47.6267 14
      vertex 12.5 52.01 14
      vertex 4.99013 47.314 14
    endloop
  endfacet
  facet normal 0 0 -1
    outer loop
      vertex 4.91144 47.9369 14
      vertex 12.5 52.01 14
      vertex 4.96057 47.6267 14
    endloop
  endfacet
  facet normal 0 0 -1
    outer loop
      vertex 4.84292 48.2435 14
      vertex 12.5 52.01 14
      vertex 4.91144 47.9369 14
    endloop
  endfacet
  facet normal 0 0 -1
    outer loop
      vertex 4.75528 48.5451 14
      vertex 12.5 52.01 14
      vertex 4.84292 48.2435 14
    endloop
  endfacet
  facet normal 0 0 -1
    outer loop
      vertex 4.64888 48.8406 14
      vertex 12.5 52.01 14
      vertex 4.75528 48.5451 14
    endloop
  endfacet
  facet normal 0 0 -1
    outer loop
      vertex 4.52413 49.1289 14
      vertex 12.5 52.01 14
      vertex 4.64888 48.8406 14
    endloop
  endfacet
  facet normal 0 0 -1
    outer loop
      vertex 4.38153 49.4088 14
      vertex 12.5 52.01 14
      vertex 4.52413 49.1289 14
    endloop
  endfacet
  facet normal 0 0 -1
    outer loop
      vertex 4.22164 49.6791 14
      vertex 12.5 52.01 14
      vertex 4.38153 49.4088 14
    endloop
  endfacet
  facet normal 0 0 -1
    outer loop
      vertex 4.04508 49.9389 14
      vertex 12.5 52.01 14
      vertex 4.22164 49.6791 14
    endloop
  endfacet
  facet normal 0 0 -1
    outer loop
      vertex 3.85257 50.1871 14
      vertex 12.5 52.01 14
      vertex 4.04508 49.9389 14
    endloop
  endfacet
  facet normal 0 0 -1
    outer loop
      vertex 3.64484 50.4227 14
      vertex 12.5 52.01 14
      vertex 3.85257 50.1871 14
    endloop
  endfacet
  facet normal 0 0 -1
    outer loop
      vertex 3.42274 50.6448 14
      vertex 12.5 52.01 14
      vertex 3.64484 50.4227 14
    endloop
  endfacet
  facet normal 0 0 -1
    outer loop
      vertex 3.18712 50.8526 14
      vertex 12.5 52.01 14
      vertex 3.42274 50.6448 14
    endloop
  endfacet
  facet normal 0 0 -1
    outer loop
      vertex 2.93893 51.0451 14
      vertex 12.5 52.01 14
      vertex 3.18712 50.8526 14
    endloop
  endfacet
  facet normal 0 0 -1
    outer loop
      vertex 2.67913 51.2216 14
      vertex 12.5 52.01 14
      vertex 2.93893 51.0451 14
    endloop
  endfacet
  facet normal 0 0 -1
    outer loop
      vertex 2.40877 51.3815 14
      vertex 12.5 52.01 14
      vertex 2.67913 51.2216 14
    endloop
  endfacet
  facet normal 0 0 -1
    outer loop
      vertex 2.1289 51.5241 14
      vertex 12.5 52.01 14
      vertex 2.40877 51.3815 14
    endloop
  endfacet
  facet normal 0 0 -1
    outer loop
      vertex 1.84062 51.6489 14
      vertex 12.5 52.01 14
      vertex 2.1289 51.5241 14
    endloop
  endfacet
  facet normal 0 0 -1
    outer loop
      vertex 1.54508 51.7553 14
      vertex 12.5 52.01 14
      vertex 1.84062 51.6489 14
    endloop
  endfacet
  facet normal 0 0 -1
    outer loop
      vertex 1.24345 51.8429 14
      vertex 12.5 52.01 14
      vertex 1.54508 51.7553 14
    endloop
  endfacet
  facet normal 0 0 -1
    outer loop
      vertex 0.936906 51.9114 14
      vertex 12.5 52.01 14
      vertex 1.24345 51.8429 14
    endloop
  endfacet
  facet normal 0 0 -1
    outer loop
      vertex 0.626666 51.9606 14
      vertex 12.5 52.01 14
      vertex 0.936906 51.9114 14
    endloop
  endfacet
  facet normal 0 0 -1
    outer loop
      vertex 0.313952 51.9901 14
      vertex 12.5 52.01 14
      vertex 0.626666 51.9606 14
    endloop
  endfacet
  facet normal 0 0 -1
    outer loop
      vertex 0 52 14
      vertex 12.5 52.01 14
      vertex 0.313952 51.9901 14
    endloop
  endfacet
  facet normal 0 0 -1
    outer loop
      vertex -4.99013 46.686 14
      vertex -12.5 52.01 14
      vertex -5 47 14
    endloop
  endfacet
  facet normal 0 0 -1
    outer loop
      vertex -5 47 14
      vertex -12.5 52.01 14
      vertex -4.99013 47.314 14
    endloop
  endfacet
  facet normal 0 0 -1
    outer loop
      vertex -4.99013 47.314 14
      vertex -12.5 52.01 14
      vertex -4.96057 47.6267 14
    endloop
  endfacet
  facet normal 0 0 -1
    outer loop
      vertex 0 52 14
      vertex -12.5 52.01 14
      vertex 12.5 52.01 14
    endloop
  endfacet
  facet normal 0 0 -1
    outer loop
      vertex -0.313952 51.9901 14
      vertex -12.5 52.01 14
      vertex 0 52 14
    endloop
  endfacet
  facet normal 0 0 -1
    outer loop
      vertex -0.626666 51.9606 14
      vertex -12.5 52.01 14
      vertex -0.313952 51.9901 14
    endloop
  endfacet
  facet normal 0 0 -1
    outer loop
      vertex -0.936906 51.9114 14
      vertex -12.5 52.01 14
      vertex -0.626666 51.9606 14
    endloop
  endfacet
  facet normal 0 0 -1
    outer loop
      vertex -1.24345 51.8429 14
      vertex -12.5 52.01 14
      vertex -0.936906 51.9114 14
    endloop
  endfacet
  facet normal 0 0 -1
    outer loop
      vertex -1.54508 51.7553 14
      vertex -12.5 52.01 14
      vertex -1.24345 51.8429 14
    endloop
  endfacet
  facet normal 0 0 -1
    outer loop
      vertex -1.84062 51.6489 14
      vertex -12.5 52.01 14
      vertex -1.54508 51.7553 14
    endloop
  endfacet
  facet normal 0 0 -1
    outer loop
      vertex -2.1289 51.5241 14
      vertex -12.5 52.01 14
      vertex -1.84062 51.6489 14
    endloop
  endfacet
  facet normal 0 0 -1
    outer loop
      vertex -2.40877 51.3815 14
      vertex -12.5 52.01 14
      vertex -2.1289 51.5241 14
    endloop
  endfacet
  facet normal 0 0 -1
    outer loop
      vertex -2.67913 51.2216 14
      vertex -12.5 52.01 14
      vertex -2.40877 51.3815 14
    endloop
  endfacet
  facet normal 0 0 -1
    outer loop
      vertex -2.93893 51.0451 14
      vertex -12.5 52.01 14
      vertex -2.67913 51.2216 14
    endloop
  endfacet
  facet normal 0 0 -1
    outer loop
      vertex -3.18712 50.8526 14
      vertex -12.5 52.01 14
      vertex -2.93893 51.0451 14
    endloop
  endfacet
  facet normal 0 0 -1
    outer loop
      vertex -3.42274 50.6448 14
      vertex -12.5 52.01 14
      vertex -3.18712 50.8526 14
    endloop
  endfacet
  facet normal 0 0 -1
    outer loop
      vertex -3.64484 50.4227 14
      vertex -12.5 52.01 14
      vertex -3.42274 50.6448 14
    endloop
  endfacet
  facet normal 0 0 -1
    outer loop
      vertex -3.85257 50.1871 14
      vertex -12.5 52.01 14
      vertex -3.64484 50.4227 14
    endloop
  endfacet
  facet normal 0 0 -1
    outer loop
      vertex -4.04508 49.9389 14
      vertex -12.5 52.01 14
      vertex -3.85257 50.1871 14
    endloop
  endfacet
  facet normal 0 0 -1
    outer loop
      vertex -4.22164 49.6791 14
      vertex -12.5 52.01 14
      vertex -4.04508 49.9389 14
    endloop
  endfacet
  facet normal 0 0 -1
    outer loop
      vertex -4.38153 49.4088 14
      vertex -12.5 52.01 14
      vertex -4.22164 49.6791 14
    endloop
  endfacet
  facet normal 0 0 -1
    outer loop
      vertex -4.52413 49.1289 14
      vertex -12.5 52.01 14
      vertex -4.38153 49.4088 14
    endloop
  endfacet
  facet normal 0 0 -1
    outer loop
      vertex -4.64888 48.8406 14
      vertex -12.5 52.01 14
      vertex -4.52413 49.1289 14
    endloop
  endfacet
  facet normal 0 0 -1
    outer loop
      vertex -4.75528 48.5451 14
      vertex -12.5 52.01 14
      vertex -4.64888 48.8406 14
    endloop
  endfacet
  facet normal 0 0 -1
    outer loop
      vertex -4.84292 48.2435 14
      vertex -12.5 52.01 14
      vertex -4.75528 48.5451 14
    endloop
  endfacet
  facet normal 0 0 -1
    outer loop
      vertex -4.91144 47.9369 14
      vertex -12.5 52.01 14
      vertex -4.84292 48.2435 14
    endloop
  endfacet
  facet normal 0 0 -1
    outer loop
      vertex -4.96057 47.6267 14
      vertex -12.5 52.01 14
      vertex -4.91144 47.9369 14
    endloop
  endfacet
  facet normal -1 0 0
    outer loop
      vertex 12.5 2 2
      vertex 12.5 52.01 14
      vertex 12.5 52.01 2
    endloop
  endfacet
  facet normal -1 -0 0
    outer loop
      vertex 12.5 52.01 14
      vertex 12.5 2 2
      vertex 12.5 2 14
    endloop
  endfacet
  facet normal -0 0 1
    outer loop
      vertex -12.5 52.01 2
      vertex 12.5 2 2
      vertex 12.5 52.01 2
    endloop
  endfacet
  facet normal 0 0 1
    outer loop
      vertex 12.5 2 2
      vertex -12.5 52.01 2
      vertex -12.5 2 2
    endloop
  endfacet
  facet normal 0 1 0
    outer loop
      vertex 12.5 2 14
      vertex 10 2 9.575
      vertex -12.5 2 14
    endloop
  endfacet
  facet normal 0 1 0
    outer loop
      vertex 12.5 2 14
      vertex 10 2 6.425
      vertex 10 2 9.575
    endloop
  endfacet
  facet normal 0 1 0
    outer loop
      vertex 10 2 6.425
      vertex 12.5 2 2
      vertex -10 2 6.425
    endloop
  endfacet
  facet normal 0 1 -0
    outer loop
      vertex 12.5 2 2
      vertex 10 2 6.425
      vertex 12.5 2 14
    endloop
  endfacet
  facet normal 0 1 -0
    outer loop
      vertex -10 2 9.575
      vertex -12.5 2 14
      vertex 10 2 9.575
    endloop
  endfacet
  facet normal 0 1 -0
    outer loop
      vertex -10 2 6.425
      vertex -12.5 2 14
      vertex -10 2 9.575
    endloop
  endfacet
  facet normal 0 1 0
    outer loop
      vertex -10 2 6.425
      vertex -12.5 2 2
      vertex -12.5 2 14
    endloop
  endfacet
  facet normal 0 1 0
    outer loop
      vertex -12.5 2 2
      vertex -10 2 6.425
      vertex 12.5 2 2
    endloop
  endfacet
  facet normal 0 1 0
    outer loop
      vertex 14.5 52.01 16
      vertex 12.5 52.01 14
      vertex -14.5 52.01 16
    endloop
  endfacet
  facet normal 0 1 0
    outer loop
      vertex 14.5 52.01 16
      vertex 12.5 52.01 2
      vertex 12.5 52.01 14
    endloop
  endfacet
  facet normal 0 1 0
    outer loop
      vertex 12.5 52.01 2
      vertex 14.5 52.01 0
      vertex -12.5 52.01 2
    endloop
  endfacet
  facet normal 0 1 -0
    outer loop
      vertex 14.5 52.01 0
      vertex 12.5 52.01 2
      vertex 14.5 52.01 16
    endloop
  endfacet
  facet normal 0 1 -0
    outer loop
      vertex -12.5 52.01 14
      vertex -14.5 52.01 16
      vertex 12.5 52.01 14
    endloop
  endfacet
  facet normal 0 1 -0
    outer loop
      vertex -12.5 52.01 2
      vertex -14.5 52.01 16
      vertex -12.5 52.01 14
    endloop
  endfacet
  facet normal 0 1 0
    outer loop
      vertex -12.5 52.01 2
      vertex -14.5 52.01 0
      vertex -14.5 52.01 16
    endloop
  endfacet
  facet normal 0 1 0
    outer loop
      vertex -14.5 52.01 0
      vertex -12.5 52.01 2
      vertex 14.5 52.01 0
    endloop
  endfacet
  facet normal 1 -0 0
    outer loop
      vertex -10 -8.75 9.575
      vertex -10 2 6.425
      vertex -10 2 9.575
    endloop
  endfacet
  facet normal 1 0 0
    outer loop
      vertex -10 2 6.425
      vertex -10 -8.75 9.575
      vertex -10 -8.75 6.425
    endloop
  endfacet
  facet normal 0 0 -1
    outer loop
      vertex -10 -8.75 9.575
      vertex 10 -8.75 9.575
      vertex 0 -18.75 9.575
    endloop
  endfacet
  facet normal 0 0 -1
    outer loop
      vertex 10 -8.75 9.575
      vertex -10 -8.75 9.575
      vertex 10 2 9.575
    endloop
  endfacet
  facet normal -0 0 -1
    outer loop
      vertex 10 2 9.575
      vertex -10 -8.75 9.575
      vertex -10 2 9.575
    endloop
  endfacet
  facet normal -1 0 0
    outer loop
      vertex 10 -8.75 6.425
      vertex 10 2 9.575
      vertex 10 2 6.425
    endloop
  endfacet
  facet normal -1 -0 0
    outer loop
      vertex 10 2 9.575
      vertex 10 -8.75 6.425
      vertex 10 -8.75 9.575
    endloop
  endfacet
  facet normal 0 0 1
    outer loop
      vertex -10 -8.75 6.425
      vertex 10 -8.75 6.425
      vertex 10 2 6.425
    endloop
  endfacet
  facet normal 0 0 1
    outer loop
      vertex -10 -8.75 6.425
      vertex 10 2 6.425
      vertex -10 2 6.425
    endloop
  endfacet
  facet normal 0 0 1
    outer loop
      vertex 10 -8.75 6.425
      vertex -10 -8.75 6.425
      vertex 0 -18.75 6.425
    endloop
  endfacet
  facet normal -0.999507 -0.0314118 0
    outer loop
      vertex 5 47 14
      vertex 4.99013 47.314 18
      vertex 4.99013 47.314 14
    endloop
  endfacet
  facet normal -0.999507 -0.0314118 0
    outer loop
      vertex 4.99013 47.314 18
      vertex 5 47 14
      vertex 5 47 18
    endloop
  endfacet
  facet normal 0.0314058 -0.999507 0
    outer loop
      vertex -0.313952 51.9901 14
      vertex 0 52 18
      vertex -0.313952 51.9901 18
    endloop
  endfacet
  facet normal 0.0314058 -0.999507 0
    outer loop
      vertex 0 52 18
      vertex -0.313952 51.9901 14
      vertex 0 52 14
    endloop
  endfacet
  facet normal -0.0314058 0.999507 0
    outer loop
      vertex 0.313952 42.0099 14
      vertex 0 42 18
      vertex 0.313952 42.0099 18
    endloop
  endfacet
  facet normal -0.0314058 0.999507 0
    outer loop
      vertex 0 42 18
      vertex 0.313952 42.0099 14
      vertex 0 42 14
    endloop
  endfacet
  facet normal -0.707105 -0.707108 0
    outer loop
      vertex 3.42274 50.6448 14
      vertex 3.64484 50.4227 18
      vertex 3.42274 50.6448 18
    endloop
  endfacet
  facet normal -0.707105 -0.707108 -0
    outer loop
      vertex 3.64484 50.4227 18
      vertex 3.42274 50.6448 14
      vertex 3.64484 50.4227 14
    endloop
  endfacet
  facet normal 0.707105 -0.707108 0
    outer loop
      vertex -3.64484 50.4227 14
      vertex -3.42274 50.6448 18
      vertex -3.64484 50.4227 18
    endloop
  endfacet
  facet normal 0.707105 -0.707108 0
    outer loop
      vertex -3.42274 50.6448 18
      vertex -3.64484 50.4227 14
      vertex -3.42274 50.6448 14
    endloop
  endfacet
  facet normal 0.39714 -0.917758 0
    outer loop
      vertex -2.1289 51.5241 14
      vertex -1.84062 51.6489 18
      vertex -2.1289 51.5241 18
    endloop
  endfacet
  facet normal 0.39714 -0.917758 0
    outer loop
      vertex -1.84062 51.6489 18
      vertex -2.1289 51.5241 14
      vertex -1.84062 51.6489 14
    endloop
  endfacet
  facet normal -0.917754 -0.397149 0
    outer loop
      vertex 4.64888 48.8406 14
      vertex 4.52413 49.1289 18
      vertex 4.52413 49.1289 14
    endloop
  endfacet
  facet normal -0.917754 -0.397149 0
    outer loop
      vertex 4.52413 49.1289 18
      vertex 4.64888 48.8406 14
      vertex 4.64888 48.8406 18
    endloop
  endfacet
  facet normal -0.338748 -0.940877 0
    outer loop
      vertex 1.54508 51.7553 14
      vertex 1.84062 51.6489 18
      vertex 1.54508 51.7553 18
    endloop
  endfacet
  facet normal -0.338748 -0.940877 -0
    outer loop
      vertex 1.84062 51.6489 18
      vertex 1.54508 51.7553 14
      vertex 1.84062 51.6489 14
    endloop
  endfacet
  facet normal -0.50904 -0.860743 0
    outer loop
      vertex 2.40877 51.3815 14
      vertex 2.67913 51.2216 18
      vertex 2.40877 51.3815 18
    endloop
  endfacet
  facet normal -0.50904 -0.860743 -0
    outer loop
      vertex 2.67913 51.2216 18
      vertex 2.40877 51.3815 14
      vertex 2.67913 51.2216 14
    endloop
  endfacet
  facet normal 0.94088 -0.338741 0
    outer loop
      vertex -4.75528 48.5451 18
      vertex -4.64888 48.8406 14
      vertex -4.64888 48.8406 18
    endloop
  endfacet
  facet normal 0.94088 -0.338741 0
    outer loop
      vertex -4.64888 48.8406 14
      vertex -4.75528 48.5451 18
      vertex -4.75528 48.5451 14
    endloop
  endfacet
  facet normal 0.218152 -0.975915 0
    outer loop
      vertex -1.24345 51.8429 14
      vertex -0.936906 51.9114 18
      vertex -1.24345 51.8429 18
    endloop
  endfacet
  facet normal 0.218152 -0.975915 0
    outer loop
      vertex -0.936906 51.9114 18
      vertex -1.24345 51.8429 14
      vertex -0.936906 51.9114 14
    endloop
  endfacet
  facet normal -0.975917 -0.218142 0
    outer loop
      vertex 4.91144 47.9369 14
      vertex 4.84292 48.2435 18
      vertex 4.84292 48.2435 14
    endloop
  endfacet
  facet normal -0.975917 -0.218142 0
    outer loop
      vertex 4.84292 48.2435 18
      vertex 4.91144 47.9369 14
      vertex 4.91144 47.9369 18
    endloop
  endfacet
  facet normal -0.960294 -0.278991 0
    outer loop
      vertex 4.84292 48.2435 14
      vertex 4.75528 48.5451 18
      vertex 4.75528 48.5451 14
    endloop
  endfacet
  facet normal -0.960294 -0.278991 0
    outer loop
      vertex 4.75528 48.5451 18
      vertex 4.84292 48.2435 14
      vertex 4.84292 48.2435 18
    endloop
  endfacet
  facet normal -0.827082 -0.562081 0
    outer loop
      vertex 4.22164 49.6791 14
      vertex 4.04508 49.9389 18
      vertex 4.04508 49.9389 14
    endloop
  endfacet
  facet normal -0.827082 -0.562081 0
    outer loop
      vertex 4.04508 49.9389 18
      vertex 4.22164 49.6791 14
      vertex 4.22164 49.6791 18
    endloop
  endfacet
  facet normal -0.891007 -0.45399 0
    outer loop
      vertex 4.52413 49.1289 14
      vertex 4.38153 49.4088 18
      vertex 4.38153 49.4088 14
    endloop
  endfacet
  facet normal -0.891007 -0.45399 0
    outer loop
      vertex 4.38153 49.4088 18
      vertex 4.52413 49.1289 14
      vertex 4.52413 49.1289 18
    endloop
  endfacet
  facet normal -0.156422 -0.98769 0
    outer loop
      vertex 0.626666 51.9606 14
      vertex 0.936906 51.9114 18
      vertex 0.626666 51.9606 18
    endloop
  endfacet
  facet normal -0.156422 -0.98769 -0
    outer loop
      vertex 0.936906 51.9114 18
      vertex 0.626666 51.9606 14
      vertex 0.936906 51.9114 14
    endloop
  endfacet
  facet normal -0.453998 -0.891003 0
    outer loop
      vertex 2.1289 51.5241 14
      vertex 2.40877 51.3815 18
      vertex 2.1289 51.5241 18
    endloop
  endfacet
  facet normal -0.453998 -0.891003 -0
    outer loop
      vertex 2.40877 51.3815 18
      vertex 2.1289 51.5241 14
      vertex 2.40877 51.3815 14
    endloop
  endfacet
  facet normal -0.61291 -0.790153 0
    outer loop
      vertex 2.93893 51.0451 14
      vertex 3.18712 50.8526 18
      vertex 2.93893 51.0451 18
    endloop
  endfacet
  facet normal -0.61291 -0.790153 -0
    outer loop
      vertex 3.18712 50.8526 18
      vertex 2.93893 51.0451 14
      vertex 3.18712 50.8526 14
    endloop
  endfacet
  facet normal 0.987688 -0.156435 0
    outer loop
      vertex -4.96057 47.6267 18
      vertex -4.91144 47.9369 14
      vertex -4.91144 47.9369 18
    endloop
  endfacet
  facet normal 0.987688 -0.156435 0
    outer loop
      vertex -4.91144 47.9369 14
      vertex -4.96057 47.6267 18
      vertex -4.96057 47.6267 14
    endloop
  endfacet
  facet normal 0.860743 -0.50904 0
    outer loop
      vertex -4.38153 49.4088 18
      vertex -4.22164 49.6791 14
      vertex -4.22164 49.6791 18
    endloop
  endfacet
  facet normal 0.860743 -0.50904 0
    outer loop
      vertex -4.22164 49.6791 14
      vertex -4.38153 49.4088 18
      vertex -4.38153 49.4088 14
    endloop
  endfacet
  facet normal 0.891007 -0.45399 0
    outer loop
      vertex -4.52413 49.1289 18
      vertex -4.38153 49.4088 14
      vertex -4.38153 49.4088 18
    endloop
  endfacet
  facet normal 0.891007 -0.45399 0
    outer loop
      vertex -4.38153 49.4088 14
      vertex -4.52413 49.1289 18
      vertex -4.52413 49.1289 14
    endloop
  endfacet
  facet normal 0.562077 -0.827085 0
    outer loop
      vertex -2.93893 51.0451 14
      vertex -2.67913 51.2216 18
      vertex -2.93893 51.0451 18
    endloop
  endfacet
  facet normal 0.562077 -0.827085 0
    outer loop
      vertex -2.67913 51.2216 18
      vertex -2.93893 51.0451 14
      vertex -2.67913 51.2216 14
    endloop
  endfacet
  facet normal 0.453998 -0.891003 0
    outer loop
      vertex -2.40877 51.3815 14
      vertex -2.1289 51.5241 18
      vertex -2.40877 51.3815 18
    endloop
  endfacet
  facet normal 0.453998 -0.891003 0
    outer loop
      vertex -2.1289 51.5241 18
      vertex -2.40877 51.3815 14
      vertex -2.1289 51.5241 14
    endloop
  endfacet
  facet normal 0.278985 -0.960295 0
    outer loop
      vertex -1.54508 51.7553 14
      vertex -1.24345 51.8429 18
      vertex -1.54508 51.7553 18
    endloop
  endfacet
  facet normal 0.278985 -0.960295 0
    outer loop
      vertex -1.24345 51.8429 18
      vertex -1.54508 51.7553 14
      vertex -1.24345 51.8429 14
    endloop
  endfacet
  facet normal 0.156422 -0.98769 0
    outer loop
      vertex -0.936906 51.9114 14
      vertex -0.626666 51.9606 18
      vertex -0.936906 51.9114 18
    endloop
  endfacet
  facet normal 0.156422 -0.98769 0
    outer loop
      vertex -0.626666 51.9606 18
      vertex -0.936906 51.9114 14
      vertex -0.626666 51.9606 14
    endloop
  endfacet
  facet normal -0.278996 0.960292 0
    outer loop
      vertex 1.54508 42.2447 14
      vertex 1.24345 42.1571 18
      vertex 1.54508 42.2447 18
    endloop
  endfacet
  facet normal -0.278996 0.960292 0
    outer loop
      vertex 1.24345 42.1571 18
      vertex 1.54508 42.2447 14
      vertex 1.24345 42.1571 14
    endloop
  endfacet
  facet normal -0.453988 0.891008 0
    outer loop
      vertex 2.40877 42.6185 14
      vertex 2.1289 42.4759 18
      vertex 2.40877 42.6185 18
    endloop
  endfacet
  facet normal -0.453988 0.891008 0
    outer loop
      vertex 2.1289 42.4759 18
      vertex 2.40877 42.6185 14
      vertex 2.1289 42.4759 14
    endloop
  endfacet
  facet normal -0.891005 0.453994 0
    outer loop
      vertex 4.38153 44.5912 14
      vertex 4.52413 44.8711 18
      vertex 4.52413 44.8711 14
    endloop
  endfacet
  facet normal -0.891005 0.453994 0
    outer loop
      vertex 4.52413 44.8711 18
      vertex 4.38153 44.5912 14
      vertex 4.38153 44.5912 18
    endloop
  endfacet
  facet normal 0.562085 0.827079 -0
    outer loop
      vertex -2.67913 42.7784 14
      vertex -2.93893 42.9549 18
      vertex -2.67913 42.7784 18
    endloop
  endfacet
  facet normal 0.562085 0.827079 0
    outer loop
      vertex -2.93893 42.9549 18
      vertex -2.67913 42.7784 14
      vertex -2.93893 42.9549 14
    endloop
  endfacet
  facet normal 0.338737 0.940881 -0
    outer loop
      vertex -1.54508 42.2447 14
      vertex -1.84062 42.3511 18
      vertex -1.54508 42.2447 18
    endloop
  endfacet
  facet normal 0.338737 0.940881 0
    outer loop
      vertex -1.84062 42.3511 18
      vertex -1.54508 42.2447 14
      vertex -1.84062 42.3511 14
    endloop
  endfacet
  facet normal 0.453988 0.891008 -0
    outer loop
      vertex -2.1289 42.4759 14
      vertex -2.40877 42.6185 18
      vertex -2.1289 42.4759 18
    endloop
  endfacet
  facet normal 0.453988 0.891008 0
    outer loop
      vertex -2.40877 42.6185 18
      vertex -2.1289 42.4759 14
      vertex -2.40877 42.6185 14
    endloop
  endfacet
  facet normal 0.0941082 0.995562 -0
    outer loop
      vertex -0.313952 42.0099 14
      vertex -0.626666 42.0394 18
      vertex -0.313952 42.0099 18
    endloop
  endfacet
  facet normal 0.0941082 0.995562 0
    outer loop
      vertex -0.626666 42.0394 18
      vertex -0.313952 42.0099 14
      vertex -0.626666 42.0394 14
    endloop
  endfacet
  facet normal 0.860743 0.50904 0
    outer loop
      vertex -4.22164 44.3209 18
      vertex -4.38153 44.5912 14
      vertex -4.38153 44.5912 18
    endloop
  endfacet
  facet normal 0.860743 0.50904 0
    outer loop
      vertex -4.38153 44.5912 14
      vertex -4.22164 44.3209 18
      vertex -4.22164 44.3209 14
    endloop
  endfacet
  facet normal 0.891005 0.453994 0
    outer loop
      vertex -4.38153 44.5912 18
      vertex -4.52413 44.8711 14
      vertex -4.52413 44.8711 18
    endloop
  endfacet
  facet normal 0.891005 0.453994 0
    outer loop
      vertex -4.52413 44.8711 14
      vertex -4.38153 44.5912 18
      vertex -4.38153 44.5912 14
    endloop
  endfacet
  facet normal 0.750116 0.661306 0
    outer loop
      vertex -3.64484 43.5773 18
      vertex -3.85257 43.8129 14
      vertex -3.85257 43.8129 18
    endloop
  endfacet
  facet normal 0.750116 0.661306 0
    outer loop
      vertex -3.85257 43.8129 14
      vertex -3.64484 43.5773 18
      vertex -3.64484 43.5773 14
    endloop
  endfacet
  facet normal 0.960294 0.278991 0
    outer loop
      vertex -4.75528 45.4549 18
      vertex -4.84292 45.7565 14
      vertex -4.84292 45.7565 18
    endloop
  endfacet
  facet normal 0.960294 0.278991 0
    outer loop
      vertex -4.84292 45.7565 14
      vertex -4.75528 45.4549 18
      vertex -4.75528 45.4549 14
    endloop
  endfacet
  facet normal 0.917756 0.397145 0
    outer loop
      vertex -4.52413 44.8711 18
      vertex -4.64888 45.1594 14
      vertex -4.64888 45.1594 18
    endloop
  endfacet
  facet normal 0.917756 0.397145 0
    outer loop
      vertex -4.64888 45.1594 14
      vertex -4.52413 44.8711 18
      vertex -4.52413 44.8711 14
    endloop
  endfacet
  facet normal -0.987688 -0.156435 0
    outer loop
      vertex 4.96057 47.6267 14
      vertex 4.91144 47.9369 18
      vertex 4.91144 47.9369 14
    endloop
  endfacet
  facet normal -0.987688 -0.156435 0
    outer loop
      vertex 4.91144 47.9369 18
      vertex 4.96057 47.6267 14
      vertex 4.96057 47.6267 18
    endloop
  endfacet
  facet normal -0.995562 -0.0941082 0
    outer loop
      vertex 4.99013 47.314 14
      vertex 4.96057 47.6267 18
      vertex 4.96057 47.6267 14
    endloop
  endfacet
  facet normal -0.995562 -0.0941082 0
    outer loop
      vertex 4.96057 47.6267 18
      vertex 4.99013 47.314 14
      vertex 4.99013 47.314 18
    endloop
  endfacet
  facet normal -0.94088 -0.338741 0
    outer loop
      vertex 4.75528 48.5451 14
      vertex 4.64888 48.8406 18
      vertex 4.64888 48.8406 14
    endloop
  endfacet
  facet normal -0.94088 -0.338741 0
    outer loop
      vertex 4.64888 48.8406 18
      vertex 4.75528 48.5451 14
      vertex 4.75528 48.5451 18
    endloop
  endfacet
  facet normal -0.750116 -0.661306 0
    outer loop
      vertex 3.85257 50.1871 14
      vertex 3.64484 50.4227 18
      vertex 3.64484 50.4227 14
    endloop
  endfacet
  facet normal -0.750116 -0.661306 0
    outer loop
      vertex 3.64484 50.4227 18
      vertex 3.85257 50.1871 14
      vertex 3.85257 50.1871 18
    endloop
  endfacet
  facet normal -0.218152 -0.975915 0
    outer loop
      vertex 0.936906 51.9114 14
      vertex 1.24345 51.8429 18
      vertex 0.936906 51.9114 18
    endloop
  endfacet
  facet normal -0.218152 -0.975915 -0
    outer loop
      vertex 1.24345 51.8429 18
      vertex 0.936906 51.9114 14
      vertex 1.24345 51.8429 14
    endloop
  endfacet
  facet normal -0.278985 -0.960295 0
    outer loop
      vertex 1.24345 51.8429 14
      vertex 1.54508 51.7553 18
      vertex 1.24345 51.8429 18
    endloop
  endfacet
  facet normal -0.278985 -0.960295 -0
    outer loop
      vertex 1.54508 51.7553 18
      vertex 1.24345 51.8429 14
      vertex 1.54508 51.7553 14
    endloop
  endfacet
  facet normal -0.0314058 -0.999507 0
    outer loop
      vertex 0 52 14
      vertex 0.313952 51.9901 18
      vertex 0 52 18
    endloop
  endfacet
  facet normal -0.0314058 -0.999507 -0
    outer loop
      vertex 0.313952 51.9901 18
      vertex 0 52 14
      vertex 0.313952 51.9901 14
    endloop
  endfacet
  facet normal -0.39714 -0.917758 0
    outer loop
      vertex 1.84062 51.6489 14
      vertex 2.1289 51.5241 18
      vertex 1.84062 51.6489 18
    endloop
  endfacet
  facet normal -0.39714 -0.917758 -0
    outer loop
      vertex 2.1289 51.5241 18
      vertex 1.84062 51.6489 14
      vertex 2.1289 51.5241 14
    endloop
  endfacet
  facet normal -0.661309 -0.750113 0
    outer loop
      vertex 3.18712 50.8526 14
      vertex 3.42274 50.6448 18
      vertex 3.18712 50.8526 18
    endloop
  endfacet
  facet normal -0.661309 -0.750113 -0
    outer loop
      vertex 3.42274 50.6448 18
      vertex 3.18712 50.8526 14
      vertex 3.42274 50.6448 14
    endloop
  endfacet
  facet normal 0.790152 -0.612911 0
    outer loop
      vertex -4.04508 49.9389 18
      vertex -3.85257 50.1871 14
      vertex -3.85257 50.1871 18
    endloop
  endfacet
  facet normal 0.790152 -0.612911 0
    outer loop
      vertex -3.85257 50.1871 14
      vertex -4.04508 49.9389 18
      vertex -4.04508 49.9389 14
    endloop
  endfacet
  facet normal 0.750116 -0.661306 0
    outer loop
      vertex -3.85257 50.1871 18
      vertex -3.64484 50.4227 14
      vertex -3.64484 50.4227 18
    endloop
  endfacet
  facet normal 0.750116 -0.661306 0
    outer loop
      vertex -3.64484 50.4227 14
      vertex -3.85257 50.1871 18
      vertex -3.85257 50.1871 14
    endloop
  endfacet
  facet normal 0.827082 -0.562081 0
    outer loop
      vertex -4.22164 49.6791 18
      vertex -4.04508 49.9389 14
      vertex -4.04508 49.9389 18
    endloop
  endfacet
  facet normal 0.827082 -0.562081 0
    outer loop
      vertex -4.04508 49.9389 14
      vertex -4.22164 49.6791 18
      vertex -4.22164 49.6791 14
    endloop
  endfacet
  facet normal 0.917754 -0.397149 0
    outer loop
      vertex -4.64888 48.8406 18
      vertex -4.52413 49.1289 14
      vertex -4.52413 49.1289 18
    endloop
  endfacet
  facet normal 0.917754 -0.397149 0
    outer loop
      vertex -4.52413 49.1289 14
      vertex -4.64888 48.8406 18
      vertex -4.64888 48.8406 14
    endloop
  endfacet
  facet normal 0.975917 -0.218142 0
    outer loop
      vertex -4.91144 47.9369 18
      vertex -4.84292 48.2435 14
      vertex -4.84292 48.2435 18
    endloop
  endfacet
  facet normal 0.975917 -0.218142 0
    outer loop
      vertex -4.84292 48.2435 14
      vertex -4.91144 47.9369 18
      vertex -4.91144 47.9369 14
    endloop
  endfacet
  facet normal 0.960294 -0.278991 0
    outer loop
      vertex -4.84292 48.2435 18
      vertex -4.75528 48.5451 14
      vertex -4.75528 48.5451 18
    endloop
  endfacet
  facet normal 0.960294 -0.278991 0
    outer loop
      vertex -4.75528 48.5451 14
      vertex -4.84292 48.2435 18
      vertex -4.84292 48.2435 14
    endloop
  endfacet
  facet normal 0.995562 -0.0941082 0
    outer loop
      vertex -4.99013 47.314 18
      vertex -4.96057 47.6267 14
      vertex -4.96057 47.6267 18
    endloop
  endfacet
  facet normal 0.995562 -0.0941082 0
    outer loop
      vertex -4.96057 47.6267 14
      vertex -4.99013 47.314 18
      vertex -4.99013 47.314 14
    endloop
  endfacet
  facet normal 0.999507 -0.0314118 0
    outer loop
      vertex -5 47 18
      vertex -4.99013 47.314 14
      vertex -4.99013 47.314 18
    endloop
  endfacet
  facet normal 0.999507 -0.0314118 0
    outer loop
      vertex -4.99013 47.314 14
      vertex -5 47 18
      vertex -5 47 14
    endloop
  endfacet
  facet normal 0.999507 0.0314118 0
    outer loop
      vertex -4.99013 46.686 18
      vertex -5 47 14
      vertex -5 47 18
    endloop
  endfacet
  facet normal 0.999507 0.0314118 0
    outer loop
      vertex -5 47 14
      vertex -4.99013 46.686 18
      vertex -4.99013 46.686 14
    endloop
  endfacet
  facet normal 0.50904 -0.860743 0
    outer loop
      vertex -2.67913 51.2216 14
      vertex -2.40877 51.3815 18
      vertex -2.67913 51.2216 18
    endloop
  endfacet
  facet normal 0.50904 -0.860743 0
    outer loop
      vertex -2.40877 51.3815 18
      vertex -2.67913 51.2216 14
      vertex -2.40877 51.3815 14
    endloop
  endfacet
  facet normal 0.661309 -0.750113 0
    outer loop
      vertex -3.42274 50.6448 14
      vertex -3.18712 50.8526 18
      vertex -3.42274 50.6448 18
    endloop
  endfacet
  facet normal 0.661309 -0.750113 0
    outer loop
      vertex -3.18712 50.8526 18
      vertex -3.42274 50.6448 14
      vertex -3.18712 50.8526 14
    endloop
  endfacet
  facet normal 0.338748 -0.940877 0
    outer loop
      vertex -1.84062 51.6489 14
      vertex -1.54508 51.7553 18
      vertex -1.84062 51.6489 18
    endloop
  endfacet
  facet normal 0.338748 -0.940877 0
    outer loop
      vertex -1.54508 51.7553 18
      vertex -1.84062 51.6489 14
      vertex -1.54508 51.7553 14
    endloop
  endfacet
  facet normal 0.0941202 -0.995561 0
    outer loop
      vertex -0.626666 51.9606 14
      vertex -0.313952 51.9901 18
      vertex -0.626666 51.9606 18
    endloop
  endfacet
  facet normal 0.0941202 -0.995561 0
    outer loop
      vertex -0.313952 51.9901 18
      vertex -0.626666 51.9606 14
      vertex -0.313952 51.9901 14
    endloop
  endfacet
  facet normal -0.999507 0.0314118 0
    outer loop
      vertex 4.99013 46.686 14
      vertex 5 47 18
      vertex 5 47 14
    endloop
  endfacet
  facet normal -0.999507 0.0314118 0
    outer loop
      vertex 5 47 18
      vertex 4.99013 46.686 14
      vertex 4.99013 46.686 18
    endloop
  endfacet
  facet normal -0.0941082 0.995562 0
    outer loop
      vertex 0.626666 42.0394 14
      vertex 0.313952 42.0099 18
      vertex 0.626666 42.0394 18
    endloop
  endfacet
  facet normal -0.0941082 0.995562 0
    outer loop
      vertex 0.313952 42.0099 18
      vertex 0.626666 42.0394 14
      vertex 0.313952 42.0099 14
    endloop
  endfacet
  facet normal -0.21814 0.975917 0
    outer loop
      vertex 1.24345 42.1571 14
      vertex 0.936906 42.0886 18
      vertex 1.24345 42.1571 18
    endloop
  endfacet
  facet normal -0.21814 0.975917 0
    outer loop
      vertex 0.936906 42.0886 18
      vertex 1.24345 42.1571 14
      vertex 0.936906 42.0886 14
    endloop
  endfacet
  facet normal -0.338737 0.940881 0
    outer loop
      vertex 1.84062 42.3511 14
      vertex 1.54508 42.2447 18
      vertex 1.84062 42.3511 18
    endloop
  endfacet
  facet normal -0.338737 0.940881 0
    outer loop
      vertex 1.54508 42.2447 18
      vertex 1.84062 42.3511 14
      vertex 1.54508 42.2447 14
    endloop
  endfacet
  facet normal -0.661309 0.750113 0
    outer loop
      vertex 3.42274 43.3552 14
      vertex 3.18712 43.1474 18
      vertex 3.42274 43.3552 18
    endloop
  endfacet
  facet normal -0.661309 0.750113 0
    outer loop
      vertex 3.18712 43.1474 18
      vertex 3.42274 43.3552 14
      vertex 3.18712 43.1474 14
    endloop
  endfacet
  facet normal -0.61291 0.790153 0
    outer loop
      vertex 3.18712 43.1474 14
      vertex 2.93893 42.9549 18
      vertex 3.18712 43.1474 18
    endloop
  endfacet
  facet normal -0.61291 0.790153 0
    outer loop
      vertex 2.93893 42.9549 18
      vertex 3.18712 43.1474 14
      vertex 2.93893 42.9549 14
    endloop
  endfacet
  facet normal -0.707105 0.707108 0
    outer loop
      vertex 3.64484 43.5773 14
      vertex 3.42274 43.3552 18
      vertex 3.64484 43.5773 18
    endloop
  endfacet
  facet normal -0.707105 0.707108 0
    outer loop
      vertex 3.42274 43.3552 18
      vertex 3.64484 43.5773 14
      vertex 3.42274 43.3552 14
    endloop
  endfacet
  facet normal -0.50904 0.860743 0
    outer loop
      vertex 2.67913 42.7784 14
      vertex 2.40877 42.6185 18
      vertex 2.67913 42.7784 18
    endloop
  endfacet
  facet normal -0.50904 0.860743 0
    outer loop
      vertex 2.40877 42.6185 18
      vertex 2.67913 42.7784 14
      vertex 2.40877 42.6185 14
    endloop
  endfacet
  facet normal -0.562085 0.827079 0
    outer loop
      vertex 2.93893 42.9549 14
      vertex 2.67913 42.7784 18
      vertex 2.93893 42.9549 18
    endloop
  endfacet
  facet normal -0.562085 0.827079 0
    outer loop
      vertex 2.67913 42.7784 18
      vertex 2.93893 42.9549 14
      vertex 2.67913 42.7784 14
    endloop
  endfacet
  facet normal -0.750116 0.661306 0
    outer loop
      vertex 3.64484 43.5773 14
      vertex 3.85257 43.8129 18
      vertex 3.85257 43.8129 14
    endloop
  endfacet
  facet normal -0.750116 0.661306 0
    outer loop
      vertex 3.85257 43.8129 18
      vertex 3.64484 43.5773 14
      vertex 3.64484 43.5773 18
    endloop
  endfacet
  facet normal -0.827082 0.562081 0
    outer loop
      vertex 4.04508 44.0611 14
      vertex 4.22164 44.3209 18
      vertex 4.22164 44.3209 14
    endloop
  endfacet
  facet normal -0.827082 0.562081 0
    outer loop
      vertex 4.22164 44.3209 18
      vertex 4.04508 44.0611 14
      vertex 4.04508 44.0611 18
    endloop
  endfacet
  facet normal -0.917756 0.397145 0
    outer loop
      vertex 4.52413 44.8711 14
      vertex 4.64888 45.1594 18
      vertex 4.64888 45.1594 14
    endloop
  endfacet
  facet normal -0.917756 0.397145 0
    outer loop
      vertex 4.64888 45.1594 18
      vertex 4.52413 44.8711 14
      vertex 4.52413 44.8711 18
    endloop
  endfacet
  facet normal -0.987688 0.156435 0
    outer loop
      vertex 4.91144 46.0631 14
      vertex 4.96057 46.3733 18
      vertex 4.96057 46.3733 14
    endloop
  endfacet
  facet normal -0.987688 0.156435 0
    outer loop
      vertex 4.96057 46.3733 18
      vertex 4.91144 46.0631 14
      vertex 4.91144 46.0631 18
    endloop
  endfacet
  facet normal -0.960294 0.278991 0
    outer loop
      vertex 4.75528 45.4549 14
      vertex 4.84292 45.7565 18
      vertex 4.84292 45.7565 14
    endloop
  endfacet
  facet normal -0.960294 0.278991 0
    outer loop
      vertex 4.84292 45.7565 18
      vertex 4.75528 45.4549 14
      vertex 4.75528 45.4549 18
    endloop
  endfacet
  facet normal 0.661309 0.750113 -0
    outer loop
      vertex -3.18712 43.1474 14
      vertex -3.42274 43.3552 18
      vertex -3.18712 43.1474 18
    endloop
  endfacet
  facet normal 0.661309 0.750113 0
    outer loop
      vertex -3.42274 43.3552 18
      vertex -3.18712 43.1474 14
      vertex -3.42274 43.3552 14
    endloop
  endfacet
  facet normal 0.397151 0.917753 -0
    outer loop
      vertex -1.84062 42.3511 14
      vertex -2.1289 42.4759 18
      vertex -1.84062 42.3511 18
    endloop
  endfacet
  facet normal 0.397151 0.917753 0
    outer loop
      vertex -2.1289 42.4759 18
      vertex -1.84062 42.3511 14
      vertex -2.1289 42.4759 14
    endloop
  endfacet
  facet normal 0.156434 0.987688 -0
    outer loop
      vertex -0.626666 42.0394 14
      vertex -0.936906 42.0886 18
      vertex -0.626666 42.0394 18
    endloop
  endfacet
  facet normal 0.156434 0.987688 0
    outer loop
      vertex -0.936906 42.0886 18
      vertex -0.626666 42.0394 14
      vertex -0.936906 42.0886 14
    endloop
  endfacet
  facet normal 0.278996 0.960292 -0
    outer loop
      vertex -1.24345 42.1571 14
      vertex -1.54508 42.2447 18
      vertex -1.24345 42.1571 18
    endloop
  endfacet
  facet normal 0.278996 0.960292 0
    outer loop
      vertex -1.54508 42.2447 18
      vertex -1.24345 42.1571 14
      vertex -1.54508 42.2447 14
    endloop
  endfacet
  facet normal 0.21814 0.975917 -0
    outer loop
      vertex -0.936906 42.0886 14
      vertex -1.24345 42.1571 18
      vertex -0.936906 42.0886 18
    endloop
  endfacet
  facet normal 0.21814 0.975917 0
    outer loop
      vertex -1.24345 42.1571 18
      vertex -0.936906 42.0886 14
      vertex -1.24345 42.1571 14
    endloop
  endfacet
  facet normal 0.0314058 0.999507 -0
    outer loop
      vertex 0 42 14
      vertex -0.313952 42.0099 18
      vertex 0 42 18
    endloop
  endfacet
  facet normal 0.0314058 0.999507 0
    outer loop
      vertex -0.313952 42.0099 18
      vertex 0 42 14
      vertex -0.313952 42.0099 14
    endloop
  endfacet
  facet normal 0.790152 0.612911 0
    outer loop
      vertex -3.85257 43.8129 18
      vertex -4.04508 44.0611 14
      vertex -4.04508 44.0611 18
    endloop
  endfacet
  facet normal 0.790152 0.612911 0
    outer loop
      vertex -4.04508 44.0611 14
      vertex -3.85257 43.8129 18
      vertex -3.85257 43.8129 14
    endloop
  endfacet
  facet normal 0.707105 0.707108 -0
    outer loop
      vertex -3.42274 43.3552 14
      vertex -3.64484 43.5773 18
      vertex -3.42274 43.3552 18
    endloop
  endfacet
  facet normal 0.707105 0.707108 0
    outer loop
      vertex -3.64484 43.5773 18
      vertex -3.42274 43.3552 14
      vertex -3.64484 43.5773 14
    endloop
  endfacet
  facet normal 0.94088 0.338741 0
    outer loop
      vertex -4.64888 45.1594 18
      vertex -4.75528 45.4549 14
      vertex -4.75528 45.4549 18
    endloop
  endfacet
  facet normal 0.94088 0.338741 0
    outer loop
      vertex -4.75528 45.4549 14
      vertex -4.64888 45.1594 18
      vertex -4.64888 45.1594 14
    endloop
  endfacet
  facet normal 0.975917 0.218142 0
    outer loop
      vertex -4.84292 45.7565 18
      vertex -4.91144 46.0631 14
      vertex -4.91144 46.0631 18
    endloop
  endfacet
  facet normal 0.975917 0.218142 0
    outer loop
      vertex -4.91144 46.0631 14
      vertex -4.84292 45.7565 18
      vertex -4.84292 45.7565 14
    endloop
  endfacet
  facet normal 0.995562 0.0941082 0
    outer loop
      vertex -4.96057 46.3733 18
      vertex -4.99013 46.686 14
      vertex -4.99013 46.686 18
    endloop
  endfacet
  facet normal 0.995562 0.0941082 0
    outer loop
      vertex -4.99013 46.686 14
      vertex -4.96057 46.3733 18
      vertex -4.96057 46.3733 14
    endloop
  endfacet
  facet normal -0.790152 -0.612911 0
    outer loop
      vertex 4.04508 49.9389 14
      vertex 3.85257 50.1871 18
      vertex 3.85257 50.1871 14
    endloop
  endfacet
  facet normal -0.790152 -0.612911 0
    outer loop
      vertex 3.85257 50.1871 18
      vertex 4.04508 49.9389 14
      vertex 4.04508 49.9389 18
    endloop
  endfacet
  facet normal -0.860743 -0.50904 0
    outer loop
      vertex 4.38153 49.4088 14
      vertex 4.22164 49.6791 18
      vertex 4.22164 49.6791 14
    endloop
  endfacet
  facet normal -0.860743 -0.50904 0
    outer loop
      vertex 4.22164 49.6791 18
      vertex 4.38153 49.4088 14
      vertex 4.38153 49.4088 18
    endloop
  endfacet
  facet normal -0.0941202 -0.995561 0
    outer loop
      vertex 0.313952 51.9901 14
      vertex 0.626666 51.9606 18
      vertex 0.313952 51.9901 18
    endloop
  endfacet
  facet normal -0.0941202 -0.995561 -0
    outer loop
      vertex 0.626666 51.9606 18
      vertex 0.313952 51.9901 14
      vertex 0.626666 51.9606 14
    endloop
  endfacet
  facet normal -0.562077 -0.827085 0
    outer loop
      vertex 2.67913 51.2216 14
      vertex 2.93893 51.0451 18
      vertex 2.67913 51.2216 18
    endloop
  endfacet
  facet normal -0.562077 -0.827085 -0
    outer loop
      vertex 2.93893 51.0451 18
      vertex 2.67913 51.2216 14
      vertex 2.93893 51.0451 14
    endloop
  endfacet
  facet normal 0.61291 -0.790153 0
    outer loop
      vertex -3.18712 50.8526 14
      vertex -2.93893 51.0451 18
      vertex -3.18712 50.8526 18
    endloop
  endfacet
  facet normal 0.61291 -0.790153 0
    outer loop
      vertex -2.93893 51.0451 18
      vertex -3.18712 50.8526 14
      vertex -2.93893 51.0451 14
    endloop
  endfacet
  facet normal -0.156434 0.987688 0
    outer loop
      vertex 0.936906 42.0886 14
      vertex 0.626666 42.0394 18
      vertex 0.936906 42.0886 18
    endloop
  endfacet
  facet normal -0.156434 0.987688 0
    outer loop
      vertex 0.626666 42.0394 18
      vertex 0.936906 42.0886 14
      vertex 0.626666 42.0394 14
    endloop
  endfacet
  facet normal -0.397151 0.917753 0
    outer loop
      vertex 2.1289 42.4759 14
      vertex 1.84062 42.3511 18
      vertex 2.1289 42.4759 18
    endloop
  endfacet
  facet normal -0.397151 0.917753 0
    outer loop
      vertex 1.84062 42.3511 18
      vertex 2.1289 42.4759 14
      vertex 1.84062 42.3511 14
    endloop
  endfacet
  facet normal -0.790152 0.612911 0
    outer loop
      vertex 3.85257 43.8129 14
      vertex 4.04508 44.0611 18
      vertex 4.04508 44.0611 14
    endloop
  endfacet
  facet normal -0.790152 0.612911 0
    outer loop
      vertex 4.04508 44.0611 18
      vertex 3.85257 43.8129 14
      vertex 3.85257 43.8129 18
    endloop
  endfacet
  facet normal -0.860743 0.50904 0
    outer loop
      vertex 4.22164 44.3209 14
      vertex 4.38153 44.5912 18
      vertex 4.38153 44.5912 14
    endloop
  endfacet
  facet normal -0.860743 0.50904 0
    outer loop
      vertex 4.38153 44.5912 18
      vertex 4.22164 44.3209 14
      vertex 4.22164 44.3209 18
    endloop
  endfacet
  facet normal -0.94088 0.338741 0
    outer loop
      vertex 4.64888 45.1594 14
      vertex 4.75528 45.4549 18
      vertex 4.75528 45.4549 14
    endloop
  endfacet
  facet normal -0.94088 0.338741 0
    outer loop
      vertex 4.75528 45.4549 18
      vertex 4.64888 45.1594 14
      vertex 4.64888 45.1594 18
    endloop
  endfacet
  facet normal -0.995562 0.0941082 0
    outer loop
      vertex 4.96057 46.3733 14
      vertex 4.99013 46.686 18
      vertex 4.99013 46.686 14
    endloop
  endfacet
  facet normal -0.995562 0.0941082 0
    outer loop
      vertex 4.99013 46.686 18
      vertex 4.96057 46.3733 14
      vertex 4.96057 46.3733 18
    endloop
  endfacet
  facet normal -0.975917 0.218142 0
    outer loop
      vertex 4.84292 45.7565 14
      vertex 4.91144 46.0631 18
      vertex 4.91144 46.0631 14
    endloop
  endfacet
  facet normal -0.975917 0.218142 0
    outer loop
      vertex 4.91144 46.0631 18
      vertex 4.84292 45.7565 14
      vertex 4.84292 45.7565 18
    endloop
  endfacet
  facet normal 0.61291 0.790153 -0
    outer loop
      vertex -2.93893 42.9549 14
      vertex -3.18712 43.1474 18
      vertex -2.93893 42.9549 18
    endloop
  endfacet
  facet normal 0.61291 0.790153 0
    outer loop
      vertex -3.18712 43.1474 18
      vertex -2.93893 42.9549 14
      vertex -3.18712 43.1474 14
    endloop
  endfacet
  facet normal 0.50904 0.860743 -0
    outer loop
      vertex -2.40877 42.6185 14
      vertex -2.67913 42.7784 18
      vertex -2.40877 42.6185 18
    endloop
  endfacet
  facet normal 0.50904 0.860743 0
    outer loop
      vertex -2.67913 42.7784 18
      vertex -2.40877 42.6185 14
      vertex -2.67913 42.7784 14
    endloop
  endfacet
  facet normal 0.827082 0.562081 0
    outer loop
      vertex -4.04508 44.0611 18
      vertex -4.22164 44.3209 14
      vertex -4.22164 44.3209 18
    endloop
  endfacet
  facet normal 0.827082 0.562081 0
    outer loop
      vertex -4.22164 44.3209 14
      vertex -4.04508 44.0611 18
      vertex -4.04508 44.0611 14
    endloop
  endfacet
  facet normal 0.987688 0.156435 0
    outer loop
      vertex -4.91144 46.0631 18
      vertex -4.96057 46.3733 14
      vertex -4.96057 46.3733 18
    endloop
  endfacet
  facet normal 0.987688 0.156435 0
    outer loop
      vertex -4.96057 46.3733 14
      vertex -4.91144 46.0631 18
      vertex -4.91144 46.0631 14
    endloop
  endfacet
endsolid OpenSCAD_Model
